<svg width="301" height="301" viewBox="0 0 301 301" fill="none" xmlns="http://www.w3.org/2000/svg">
<path d="M270.518 76.626C269.528 75.09 268.496 73.584 267.416 72.114C253.064 52.518 229.178 39.102 205.964 33.024C195.794 30.36 185.348 28.962 174.926 28.608C106.55 26.298 81.434 78.696 59.402 92.202C37.376 105.714 3.572 128.784 7.814 177.258C11.03 214.11 33.59 249.354 74.792 265.392C79.328 267.162 84.098 268.704 89.09 269.976C98.378 272.352 108.44 273.84 119.288 274.29C150.44 275.58 175.73 268.602 200.468 251.028C206.216 246.942 211.94 242.334 219.404 241.83C224.828 241.464 229.97 243.276 224.3 248.148C217.634 253.872 225.326 265.14 242.24 257.31C270.494 244.242 282.116 216.042 287.594 187.368C294.314 152.172 291.056 108.402 270.518 76.62V76.626Z" fill="#4977FF"/>
<path opacity="0.8" d="M270.518 76.626C269.528 75.09 268.496 73.584 267.416 72.114C253.064 52.518 229.178 39.102 205.964 33.024C195.794 30.36 185.348 28.962 174.926 28.608C106.55 26.298 81.434 78.696 59.402 92.202C37.376 105.714 3.572 128.784 7.814 177.258C11.03 214.11 33.59 249.354 74.792 265.392C79.328 267.162 84.098 268.704 89.09 269.976C98.378 272.352 108.44 273.84 119.288 274.29C150.44 275.58 175.73 268.602 200.468 251.028C206.216 246.942 211.94 242.334 219.404 241.83C224.828 241.464 229.97 243.276 224.3 248.148C217.634 253.872 225.326 265.14 242.24 257.31C270.494 244.242 282.116 216.042 287.594 187.368C294.314 152.172 291.056 108.402 270.518 76.62V76.626Z" fill="white"/>
<path d="M7.79601 244.35H284.414" stroke="#263238" stroke-miterlimit="10"/>
<path opacity="0.2" d="M231.782 30.27C230.33 30.27 229.112 31.212 228.674 32.514H67.466C67.022 31.212 65.804 30.27 64.358 30.27C62.534 30.27 61.058 31.746 61.058 33.57C61.058 35.394 62.534 36.87 64.358 36.87C65.81 36.87 67.028 35.928 67.466 34.626H228.668C229.112 35.928 230.33 36.87 231.776 36.87C233.6 36.87 235.076 35.394 235.076 33.57C235.076 31.746 233.6 30.27 231.776 30.27H231.782Z" fill="black"/>
<g opacity="0.2">
<path d="M105.596 35.22C107.894 91.11 109.904 147.528 112.31 203.214L112.07 214.128C112.07 214.128 101.738 214.128 96.302 214.674C90.866 215.22 82.436 215.22 76.454 215.22C70.472 215.22 67.208 213.042 67.208 213.042L67.598 203.202C68.804 147.546 70.106 91.122 70.958 35.226" stroke="black" stroke-linejoin="round"/>
<path d="M79.838 193.974L79.808 200.55" stroke="black" stroke-linejoin="round"/>
<path d="M80.402 65.76L79.862 188.13" stroke="black" stroke-linejoin="round"/>
<path d="M80.54 33.984L80.414 62.112" stroke="black" stroke-linejoin="round"/>
<path d="M89.81 98.262L88.574 179.73" stroke="black" stroke-linejoin="round"/>
<path d="M90.77 34.71L89.882 93.168" stroke="black" stroke-linejoin="round"/>
<path d="M98.462 120.918L98.804 196.536" stroke="black" stroke-linejoin="round"/>
<path d="M98.216 67.224L98.432 114.714" stroke="black" stroke-linejoin="round"/>
<path d="M98.072 35.442L98.192 61.38" stroke="black" stroke-linejoin="round"/>
</g>
<g opacity="0.2">
<path d="M188.996 35.22C186.788 94.392 183.974 154.164 181.856 213.024C181.856 213.024 188.894 214.086 193.418 214.086H216.512C221.492 214.086 227.204 212.982 227.204 212.982C226.16 154.164 225.458 94.392 223.634 35.22" stroke="black" stroke-linejoin="round"/>
<path d="M214.754 193.974L214.778 200.55" stroke="black" stroke-linejoin="round"/>
<path d="M214.19 65.76L214.724 188.13" stroke="black" stroke-linejoin="round"/>
<path d="M214.052 33.984L214.172 62.112" stroke="black" stroke-linejoin="round"/>
<path d="M204.782 98.262L206.012 179.73" stroke="black" stroke-linejoin="round"/>
<path d="M203.822 34.71L204.704 93.168" stroke="black" stroke-linejoin="round"/>
<path d="M196.13 120.918L195.782 196.536" stroke="black" stroke-linejoin="round"/>
<path d="M196.37 67.224L196.154 114.714" stroke="black" stroke-linejoin="round"/>
<path d="M196.514 35.442L196.4 61.38" stroke="black" stroke-linejoin="round"/>
</g>
<g opacity="0.2">
<path d="M106.622 51.102H122.846V70.026H107.702" stroke="black" stroke-linejoin="round"/>
<path d="M142.628 51.15H125.672V70.134H142.628V51.15Z" stroke="black" stroke-linejoin="round"/>
</g>
<g opacity="0.2">
<path d="M188.186 51.102H171.962V70.026H187.106" stroke="black" stroke-linejoin="round"/>
<path d="M152.18 70.128H169.136V51.144H152.18V70.128Z" stroke="black" stroke-linejoin="round"/>
</g>
<path opacity="0.2" d="M109.298 137.106H143.066V80.364H107.816" stroke="black" stroke-linejoin="round"/>
<path opacity="0.2" d="M186.476 79.884H151.97V137.106H183.878" stroke="black" stroke-linejoin="round"/>
<path opacity="0.2" d="M110.414 150.57H143.066V207.612H112.886" stroke="black" stroke-linejoin="round"/>
<path opacity="0.2" d="M184.25 150.09H151.97V208.14H181.4" stroke="black" stroke-linejoin="round"/>
<path opacity="0.2" d="M112.736 211.764H181.856" stroke="black" stroke-linejoin="round"/>
<path opacity="0.2" d="M106.484 44.532H188.15" stroke="black" stroke-linejoin="round"/>
<path opacity="0.2" d="M147.512 44.922V210.984" stroke="black" stroke-linejoin="round"/>
<path opacity="0.2" d="M107.522 75.972H186.956" stroke="black" stroke-linejoin="round"/>
<path d="M283.028 196.032C281.75 196.428 278.768 196.032 278.768 196.032C278.738 196.032 279.626 194.148 279.692 194.034C280.496 192.738 282.818 190.698 284.48 191.112C285.674 191.412 286.22 192.702 285.818 193.812C285.41 194.952 284.114 195.684 283.028 196.026V196.032Z" fill="#263238"/>
<path d="M255.26 195.198C255.26 195.198 254.936 193.152 254.93 193.02C254.888 191.49 255.698 188.514 257.312 187.944C258.476 187.53 259.64 188.31 259.916 189.456C260.204 190.632 259.532 191.958 258.806 192.84C257.96 193.878 255.254 195.192 255.254 195.192L255.26 195.198Z" fill="#263238"/>
<path d="M255.782 217.2C256.784 217.326 258.758 216.768 259.31 216.6C259.4 217.452 259.508 218.292 259.658 219.12C259.73 219.474 259.778 219.84 259.868 220.176C259.946 220.518 260.03 220.854 260.108 221.184C260.294 221.868 260.468 222.504 260.66 223.14C260.756 223.458 260.852 223.758 260.948 224.07C260.708 223.578 260.318 222.804 260.276 222.738C259.544 221.616 257.462 219.87 256.01 220.266C254.966 220.554 254.516 221.694 254.888 222.666C255.272 223.656 256.424 224.28 257.384 224.556C258.446 224.862 260.786 224.526 261.074 224.484C261.314 225.24 261.554 225.978 261.788 226.662C261.944 227.112 262.094 227.532 262.244 227.946H263.234C263.036 227.442 262.838 226.926 262.634 226.362C262.406 225.75 262.178 225.096 261.944 224.418C262.208 224.31 264.23 223.446 265.046 222.66C265.898 223.206 266.87 223.662 267.044 223.746C266.828 224.508 266.618 225.252 266.438 225.954C266.258 226.662 266.096 227.316 265.946 227.946H266.906C267.026 227.382 267.158 226.8 267.302 226.17C267.452 225.534 267.62 224.862 267.8 224.172C268.088 224.226 270.41 224.658 271.478 224.394C272.45 224.154 273.626 223.584 274.052 222.606C274.466 221.652 274.058 220.488 273.026 220.164C271.592 219.708 269.444 221.364 268.664 222.462C268.616 222.534 268.118 223.428 267.872 223.89C267.98 223.476 268.088 223.062 268.214 222.63C268.382 222.006 268.586 221.358 268.778 220.722C268.886 220.398 269 220.068 269.114 219.738C269.222 219.402 269.366 219.096 269.492 218.766C269.684 218.292 269.912 217.806 270.134 217.326C270.758 217.536 272.594 218.13 273.566 218.046C274.568 217.956 275.816 217.572 276.38 216.672C276.932 215.79 276.71 214.584 275.738 214.104C274.388 213.438 272.012 214.752 271.082 215.712C271.052 215.742 270.878 215.97 270.668 216.234C270.902 215.772 271.13 215.31 271.376 214.848C272.084 213.54 272.846 212.226 273.608 210.912C273.764 210.636 273.92 210.36 274.076 210.084C274.598 210.264 276.584 210.924 277.598 210.834C278.6 210.744 279.848 210.36 280.412 209.46C280.964 208.578 280.742 207.372 279.77 206.892C278.42 206.226 276.05 207.54 275.114 208.5C275.078 208.536 274.868 208.8 274.64 209.106C275.042 208.386 275.432 207.66 275.798 206.928C276.44 205.65 277.004 204.36 277.454 203.064C277.64 203.13 279.95 203.946 281.078 203.85C282.08 203.76 283.328 203.376 283.892 202.476C284.444 201.594 284.222 200.388 283.25 199.908C281.9 199.242 279.524 200.556 278.594 201.516C278.528 201.582 277.772 202.56 277.514 202.92C277.514 202.902 277.526 202.89 277.532 202.872C277.988 201.51 278.258 200.148 278.45 198.846C278.642 197.55 278.714 196.308 278.75 195.168C278.786 194.028 278.75 192.978 278.714 192.054C278.69 191.55 278.66 191.094 278.624 190.668L278.648 190.686C278.648 190.686 279.272 188.976 279.302 188.862C279.596 187.554 279.404 184.848 278.108 184.08C277.178 183.528 276.038 184.002 275.606 184.944C275.162 185.91 275.516 187.164 275.99 188.052C276.476 188.958 278.138 190.284 278.558 190.608C278.582 191.052 278.606 191.526 278.624 192.054C278.642 192.978 278.654 194.022 278.594 195.156C278.576 195.456 278.546 195.786 278.528 196.098C278.456 195.558 278.348 194.82 278.33 194.748C277.988 193.446 276.566 191.136 275.066 191.052C273.986 190.992 273.194 191.934 273.242 192.972C273.29 194.034 274.184 194.988 275.012 195.552C275.876 196.146 278.018 196.554 278.486 196.638C278.426 197.334 278.342 198.054 278.216 198.792C278 200.07 277.7 201.426 277.22 202.758L277.136 202.746C277.136 202.242 277.094 201.18 277.082 201.09C276.884 199.764 275.726 197.31 274.244 197.058C273.176 196.878 272.288 197.73 272.222 198.768C272.156 199.83 272.936 200.874 273.698 201.528C274.574 202.284 277.022 202.992 277.118 203.016C276.656 204.258 276.086 205.494 275.432 206.718C274.964 207.606 274.448 208.488 273.926 209.364C273.926 209.01 273.884 207.612 273.872 207.516C273.674 206.19 272.516 203.736 271.034 203.484C269.966 203.304 269.078 204.156 269.012 205.194C268.946 206.256 269.732 207.3 270.488 207.954C271.34 208.692 273.686 209.382 273.884 209.436C273.644 209.832 273.41 210.234 273.17 210.63C272.384 211.926 271.592 213.228 270.842 214.53C270.584 214.98 270.344 215.436 270.104 215.892C270.098 215.358 270.062 214.392 270.05 214.308C269.852 212.976 268.694 210.528 267.212 210.276C266.144 210.096 265.256 210.948 265.19 211.986C265.124 213.048 265.904 214.092 266.666 214.746C267.428 215.406 269.39 216.024 269.942 216.192C269.546 216.954 269.174 217.716 268.844 218.484C268.706 218.82 268.55 219.15 268.436 219.48C268.316 219.81 268.196 220.134 268.076 220.458C267.854 221.13 267.65 221.76 267.458 222.39C267.362 222.708 267.278 223.014 267.182 223.326C267.254 222.786 267.356 221.928 267.356 221.844C267.362 220.5 266.588 217.902 265.16 217.428C264.128 217.092 263.126 217.794 262.898 218.808C262.868 218.94 262.856 219.066 262.85 219.198C262.16 220.182 261.764 221.61 261.734 222.504C261.734 222.588 261.812 223.608 261.86 224.13C261.722 223.722 261.584 223.32 261.446 222.888C261.248 222.276 261.05 221.622 260.864 220.986C260.78 220.656 260.69 220.32 260.6 219.978C260.504 219.636 260.456 219.3 260.378 218.958C260.276 218.454 260.198 217.926 260.12 217.404C260.756 217.236 262.616 216.714 263.378 216.108C264.164 215.484 264.992 214.47 264.962 213.408C264.938 212.37 264.086 211.482 263.006 211.62C261.512 211.806 260.258 214.212 260.006 215.532C260 215.574 259.976 215.862 259.952 216.198C259.892 215.682 259.826 215.172 259.778 214.65C259.646 213.168 259.562 211.65 259.466 210.132C259.448 209.814 259.424 209.502 259.4 209.184C259.934 209.046 261.956 208.5 262.754 207.864C263.54 207.24 264.368 206.226 264.338 205.164C264.314 204.126 263.462 203.238 262.382 203.376C260.888 203.562 259.634 205.968 259.382 207.288C259.376 207.336 259.346 207.672 259.316 208.056C259.256 207.234 259.178 206.412 259.082 205.602C258.914 204.18 258.668 202.794 258.326 201.468C258.518 201.42 260.894 200.826 261.782 200.124C262.568 199.5 263.396 198.486 263.366 197.424C263.342 196.386 262.49 195.498 261.41 195.636C259.916 195.822 258.662 198.228 258.41 199.548C258.392 199.644 258.302 200.874 258.284 201.312C258.284 201.294 258.278 201.282 258.272 201.264C257.9 199.872 257.372 198.594 256.814 197.4C256.256 196.212 255.632 195.138 255.038 194.166C254.438 193.194 253.832 192.336 253.292 191.586C252.992 191.184 252.716 190.818 252.452 190.482H252.482C252.482 190.482 252.062 188.712 252.02 188.604C251.546 187.35 249.89 185.202 248.384 185.274C247.304 185.328 246.614 186.348 246.77 187.374C246.932 188.424 247.922 189.276 248.804 189.756C249.71 190.248 251.828 190.434 252.356 190.47C252.626 190.824 252.902 191.208 253.208 191.64C253.736 192.402 254.318 193.266 254.894 194.25C255.05 194.514 255.2 194.796 255.356 195.072C254.996 194.664 254.498 194.106 254.444 194.058C253.442 193.164 250.982 192.018 249.686 192.78C248.75 193.326 248.612 194.55 249.224 195.39C249.848 196.248 251.12 196.548 252.128 196.566C253.172 196.584 255.188 195.744 255.626 195.558C255.962 196.176 256.286 196.812 256.592 197.502C257.12 198.69 257.618 199.98 257.948 201.36C257.906 201.378 257.912 201.378 257.87 201.396C257.588 200.976 256.97 200.112 256.91 200.046C256.016 199.044 253.694 197.64 252.32 198.252C251.33 198.69 251.06 199.89 251.576 200.796C252.104 201.72 253.334 202.158 254.33 202.284C255.476 202.428 257.912 201.672 258.002 201.642C258.302 202.932 258.506 204.276 258.638 205.656C258.734 206.658 258.794 207.672 258.842 208.692C258.65 208.392 257.846 207.252 257.774 207.18C256.88 206.178 254.558 204.774 253.184 205.386C252.194 205.824 251.924 207.024 252.44 207.93C252.968 208.854 254.198 209.292 255.194 209.418C256.316 209.562 258.65 208.842 258.842 208.782C258.866 209.244 258.89 209.706 258.908 210.174C258.968 211.692 259.022 213.21 259.124 214.71C259.16 215.232 259.214 215.742 259.262 216.252C258.962 215.814 258.398 215.022 258.344 214.962C257.45 213.96 255.128 212.556 253.754 213.168C252.764 213.606 252.494 214.806 253.01 215.712C253.538 216.636 254.768 217.074 255.764 217.2H255.782Z" fill="#263238"/>
<path d="M264.356 249.882C257.852 249.882 252.584 244.614 252.584 238.11V226.794H276.128V238.11C276.128 244.614 270.86 249.882 264.356 249.882Z" fill="#8F8F8F" stroke="#263238" stroke-linecap="round" stroke-linejoin="round"/>
<path d="M148.898 134.376C147.074 130.986 139.646 131.034 139.646 131.034C139.646 131.034 143.684 134.64 144.2 136.986" stroke="#263238" stroke-miterlimit="10"/>
<path d="M124.154 102C124.154 102 121.22 97.272 116.486 96.126C111.758 94.986 101.804 99.39 93.164 108.198C84.518 117.006 86.642 121.248 87.62 123.696C88.598 126.144 89.414 129.24 89.414 129.24C89.414 129.24 84.356 127.284 81.422 129.564C78.488 131.844 82.892 138.534 83.54 139.188C84.194 139.842 79.136 142.122 78.644 142.614C78.152 143.106 74.732 146.526 76.688 149.628C78.644 152.73 87.452 157.458 87.452 157.944C87.452 158.43 85.82 162.348 88.268 163.98C90.716 165.612 94.958 165.936 96.584 165.612C98.21 165.288 108.656 167.406 109.796 158.436C110.936 149.466 107.678 134.946 107.678 134.946L130.838 119.778L139.646 131.034C139.646 131.034 145.742 130.176 147.698 127.236C149.654 124.302 147.962 114.882 143.558 111.462C139.154 108.042 138.662 111.3 138.662 111.3C138.662 111.3 138.824 105.102 133.118 101.676C127.412 98.25 124.148 102 124.148 102H124.154Z" fill="#263238" stroke="#263238" stroke-miterlimit="10"/>
<path d="M78.812 123.858C82.562 123.696 89.414 129.24 89.414 129.24C89.414 129.24 82.4 126.792 79.628 128.424C76.856 130.056 77.342 132.666 77.342 132.666" stroke="#263238" stroke-miterlimit="10"/>
<path d="M105.074 152.4C105.074 152.4 106.706 155.496 105.398 158.598C104.096 161.7 103.112 161.208 97.244 163.818C91.37 166.428 74.084 172.626 71.15 178.008C68.216 183.39 66.092 193.176 66.584 202.476C67.076 211.776 73.106 241.95 74.414 243.252C75.716 244.554 77.51 244.392 77.51 244.392H178.472C178.472 244.392 184.178 243.252 184.508 234.606C184.838 225.96 182.222 217.968 179.942 213.564C177.656 209.16 174.068 198.396 170.156 188.772C166.244 179.148 165.26 171.648 160.046 167.73C154.826 163.818 145.694 162.024 145.694 162.024L133.952 158.922L132.32 157.452L105.08 152.394L105.074 152.4Z" fill="#4977FF" stroke="#263238" stroke-miterlimit="10"/>
<path d="M156.632 239.688C156.632 239.688 156.392 240.66 158.33 241.026C160.274 241.392 161.972 242.604 164.522 241.998C167.072 241.392 169.376 239.568 169.496 233.748C169.616 227.922 168.284 225.498 165.734 224.16C163.184 222.822 157.964 224.886 157.358 225.498C156.752 226.11 156.266 227.682 156.386 229.14C156.506 230.598 156.626 239.7 156.626 239.7L156.632 239.688Z" fill="#4977FF" stroke="#263238" stroke-miterlimit="10"/>
<path d="M158.45 224.274C158.45 224.274 162.938 221.484 164.03 219.66C165.122 217.842 173.132 216.384 176.528 218.568C179.924 220.752 180.17 222.936 180.656 224.028" stroke="#263238" stroke-miterlimit="10"/>
<path d="M158.33 241.026C158.33 241.026 162.698 244.182 168.77 244.422" stroke="#263238" stroke-miterlimit="10"/>
<path d="M168.008 216.612C168.008 216.612 174.038 214.602 178.064 216.948" stroke="#263238" stroke-miterlimit="10"/>
<path d="M181.25 225.828C181.25 225.828 181.586 227.166 181.418 229.182" stroke="#263238" stroke-miterlimit="10"/>
<path d="M126.11 221.436C126.902 217.146 126.902 191.25 126.902 191.25C126.902 191.25 127.856 208.566 132.146 217.146" fill="#263238"/>
<path d="M126.11 221.436C126.902 217.146 126.902 191.25 126.902 191.25C126.902 191.25 127.856 208.566 132.146 217.146" stroke="#263238" stroke-miterlimit="10"/>
<path d="M157.538 193.59C159.08 200.112 161.144 210.378 160.742 216.99" stroke="#263238" stroke-miterlimit="10"/>
<path d="M155.972 187.44C155.972 187.44 156.296 188.604 156.782 190.512" stroke="#263238" stroke-miterlimit="10"/>
<path d="M97.244 163.818C96.992 163.932 96.71 164.052 96.41 164.178C98.042 167.304 102.32 174.312 110.618 180.78C121.712 189.426 126.902 191.25 126.902 191.25C129.188 189.948 139.652 168.87 140.468 162.672C140.564 161.964 140.648 161.316 140.732 160.71L133.94 158.916L132.308 157.446L105.068 152.388C105.068 152.388 106.7 155.484 105.392 158.586C104.09 161.688 103.106 161.196 97.238 163.806L97.244 163.818Z" fill="white" stroke="#263238" stroke-miterlimit="10"/>
<path d="M106.25 172.842L119.324 175.164C119.324 175.164 122.228 176.616 122.81 178.362" stroke="#263238" stroke-miterlimit="10"/>
<path d="M136.13 161.142C136.13 161.142 133.886 176.646 131.03 182.772C128.174 188.892 126.452 192.792 126.908 191.25C127.358 189.708 136.244 178.488 140.474 162.672L136.136 161.142H136.13Z" fill="#263238" stroke="#263238" stroke-miterlimit="10"/>
<path d="M132.638 158.76C132.638 158.76 131.954 163.572 134.3 167.226" stroke="#263238" stroke-miterlimit="10"/>
<path d="M138.344 145.548C138.344 145.548 146.99 143.754 148.622 146.688C150.254 149.622 148.13 155.334 148.13 155.988C148.13 156.642 158.078 157.29 159.386 162.186C160.688 167.082 154.658 171.648 152.048 173.442C149.438 175.236 154.166 177.846 148.622 179.316C143.078 180.786 147.152 174.75 147.152 174.75C147.152 174.75 141.77 178.5 139.814 172.632C137.858 166.764 140.792 163.17 140.468 162.684C140.144 162.192 133.13 161.382 132.638 158.772C132.146 156.162 137.858 149.472 138.344 145.56V145.548Z" fill="#263238" stroke="#263238" stroke-miterlimit="10"/>
<path d="M102.134 172.302L123.338 162.354L106.214 155.34C106.214 155.34 105.56 158.112 104.912 159.906C104.264 161.7 97.244 163.818 97.244 163.818C97.244 163.818 97.082 167.082 102.14 172.302H102.134Z" fill="#263238" stroke="#263238" stroke-miterlimit="10"/>
<path d="M130.844 116.028C130.844 116.028 133.598 119.598 138.344 124.344C139.322 125.322 140.3 126.462 140.3 126.462C140.3 126.462 138.656 129.144 138.302 134.766C137.996 139.632 140.15 143.094 138.344 149.952C136.838 155.652 129.698 162.672 127.25 164.304C124.802 165.936 120.89 164.958 118.28 163.812C115.67 162.672 110.612 160.464 108.746 158.88C103.694 154.566 99.194 141.792 98.702 138.696C98.21 135.594 98.048 131.52 98.048 131.52C98.048 131.52 101.474 131.52 110.606 127.44C119.738 123.36 130.832 116.022 130.832 116.022L130.844 116.028Z" fill="white" stroke="#263238" stroke-miterlimit="10"/>
<path d="M128.462 115.764C128.462 115.764 123.89 121.416 115.16 126.972C106.43 132.528 100.874 129.354 100.874 129.354C100.874 129.354 108.02 133.854 115.16 131.472C122.306 129.09 131.828 115.596 131.828 115.596L128.462 115.764Z" fill="#263238" stroke="#263238" stroke-miterlimit="10"/>
<path d="M119.174 140.37C119.174 140.37 118.94 141.294 116.516 142.332L119.174 140.37Z" fill="white"/>
<path d="M119.174 140.37C119.174 140.37 118.94 141.294 116.516 142.332" stroke="#263238" stroke-miterlimit="10"/>
<path d="M130.154 140.136C130.154 140.136 130.85 140.832 133.388 141.636L130.154 140.136Z" fill="white"/>
<path d="M130.154 140.136C130.154 140.136 130.85 140.832 133.388 141.636" stroke="#263238" stroke-miterlimit="10"/>
<path d="M105.104 128.382C105.104 128.382 104.324 138.288 102.236 139.59C100.148 140.892 95.978 131.772 95.978 131.772L103.538 123.69L105.104 128.382Z" fill="#263238" stroke="#263238" stroke-miterlimit="10"/>
<path d="M119.678 128.49C119.678 128.49 111.872 133.518 111.446 134.472C111.014 135.426 113.15 134.544 114.842 133.938C116.54 133.332 121.91 131.286 122.06 129.9C122.21 128.514 121.334 127.728 119.678 128.49Z" fill="#263238"/>
<path d="M127.58 129.564C127.58 129.564 126.11 131.196 127.256 131.682C128.402 132.168 134.108 133.968 135.086 133.476C136.064 132.984 132.638 131.028 131.174 130.212C129.704 129.396 128.888 128.256 127.586 129.558L127.58 129.564Z" fill="#263238"/>
<path d="M124.544 149.04C124.544 149.04 128.456 148.224 128.132 146.43C127.808 144.636 125.684 141.21 125.684 141.21L125.846 133.056" fill="white"/>
<path d="M124.544 149.04C124.544 149.04 128.456 148.224 128.132 146.43C127.808 144.636 125.684 141.21 125.684 141.21L125.846 133.056" stroke="#263238" stroke-miterlimit="10"/>
<path d="M124.142 148.116C124.142 148.116 122.984 149.04 121.946 149.04C120.908 149.04 120.788 148.002 121.022 147.306" fill="white"/>
<path d="M124.142 148.116C124.142 148.116 122.984 149.04 121.946 149.04C120.908 149.04 120.788 148.002 121.022 147.306" stroke="#263238" stroke-miterlimit="10"/>
<path d="M121.706 153.708C121.706 153.708 124.64 152.238 126.272 153.054" stroke="#263238" stroke-miterlimit="10"/>
<path d="M133.532 138.048C133.532 139.266 133.058 140.25 132.47 140.25C131.882 140.25 131.408 139.266 131.408 138.048C131.408 136.83 131.882 135.846 132.47 135.846C133.058 135.846 133.532 136.83 133.532 138.048Z" fill="#263238"/>
<path d="M118.856 138.372C118.856 139.59 118.382 140.574 117.794 140.574C117.206 140.574 116.732 139.59 116.732 138.372C116.732 137.154 117.206 136.17 117.794 136.17C118.382 136.17 118.856 137.154 118.856 138.372Z" fill="#263238"/>
<path d="M94.142 148.32C94.142 148.32 97.406 144.408 99.524 144.24C101.642 144.078 101.81 145.218 101.81 146.196C101.81 147.174 97.082 149.784 96.266 152.394C95.45 155.004 95.45 156.306 94.31 158.43C93.17 160.548 91.214 162.342 91.214 162.342C91.214 162.342 91.868 151.416 94.148 148.314L94.142 148.32Z" fill="white" stroke="#263238" stroke-miterlimit="10"/>
<path d="M79.304 170.832C79.304 170.832 83.054 155.664 83.054 155.172C83.054 154.68 86.318 135.108 86.318 135.108C86.318 135.108 94.31 128.748 94.964 127.932C95.618 127.116 96.596 124.836 97.898 125.646C99.2 126.462 98.714 130.05 98.714 130.05C98.714 130.05 100.016 130.866 100.016 132.498C100.016 134.13 99.362 136.902 98.714 138.696C98.06 140.49 94.148 148.32 94.148 148.32C94.148 148.32 92.678 157.128 92.03 159.9C91.382 162.672 88.604 167.076 88.604 167.076L88.112 170.502L79.304 170.826V170.832Z" fill="white" stroke="#263238" stroke-miterlimit="10"/>
<path d="M98.708 130.056C98.708 130.056 96.914 133.968 96.59 134.952C96.266 135.93 92.84 138.54 92.348 140.496C91.856 142.452 89.9 146.856 89.9 146.856" stroke="#263238" stroke-miterlimit="10"/>
<path d="M94.958 127.932C94.958 127.932 93.818 132.99 93.326 133.638C92.834 134.292 89.414 138.696 88.922 140.16C88.43 141.63 86.966 144.564 86.966 144.564" stroke="#263238" stroke-miterlimit="10"/>
<path d="M92.348 134.784L89.414 137.556" stroke="#263238" stroke-miterlimit="10"/>
<path d="M74.834 168.708C74.834 168.708 72.608 178.638 73.646 179.676C74.684 180.714 90.692 181.752 91.136 181.752C91.58 181.752 92.768 171.378 92.324 169.596C91.88 167.82 85.208 167.37 82.244 167.37C79.28 167.37 75.572 167.076 74.834 168.702V168.708Z" fill="#4977FF" stroke="#263238" stroke-miterlimit="10"/>
<path d="M73.646 179.676C73.646 179.676 72.164 184.716 72.164 187.974C72.164 191.232 68.9 213.618 67.274 224.736C65.642 235.854 67.274 240.15 70.538 242.82C73.796 245.49 78.836 247.266 82.394 246.528C85.952 245.784 90.548 245.934 93.068 240.894C95.588 235.854 96.332 226.074 94.844 218.658C93.362 211.248 91.136 181.746 91.136 181.746L73.646 179.67V179.676Z" fill="#4977FF" stroke="#263238" stroke-miterlimit="10"/>
<path d="M158.576 227.43C158.576 227.43 163.064 228.156 163.916 230.466C164.768 232.77 164.036 235.32 161.366 237.504C158.696 239.688 153.116 241.512 152.384 241.512C151.652 241.512 153.356 232.53 154.814 230.346C156.272 228.162 158.576 227.436 158.576 227.436V227.43Z" fill="white" stroke="#263238" stroke-miterlimit="10"/>
<path d="M108.314 216.51C108.314 216.51 105.182 221.766 105.614 228.264C106.112 235.794 108.158 247.962 108.158 247.962C108.158 247.962 131.192 244.152 141.362 242.082C151.532 240.018 153.434 239.7 153.434 239.7C153.434 239.7 154.706 230.646 157.244 226.674L159.788 222.702C159.788 222.702 157.724 211.74 152.48 210.468C147.236 209.196 108.314 216.504 108.314 216.504V216.51Z" fill="#D4D4D4" stroke="#263238" stroke-miterlimit="10"/>
<path d="M144.98 237.144C144.98 237.144 146.558 239.934 148.742 241.392C150.926 242.85 153.23 240.906 153.23 240.906L144.98 237.144Z" fill="white" stroke="#263238" stroke-miterlimit="10"/>
<path d="M144.008 232.65C144.008 232.65 143.522 235.56 144.248 236.292C144.974 237.018 151.046 241.512 153.23 240.906C155.414 240.3 156.266 238.356 156.02 237.51C155.78 236.658 144.002 232.656 144.002 232.656L144.008 232.65Z" fill="white" stroke="#263238" stroke-miterlimit="10"/>
<path d="M144.374 230.952C144.374 230.952 143.282 231.318 144.008 232.65C144.734 233.988 151.652 237.264 153.716 237.504C155.78 237.744 156.872 237.018 157.478 235.2C158.084 233.382 158.936 232.77 158.204 232.41C157.478 232.044 144.368 230.952 144.368 230.952H144.374Z" fill="white" stroke="#263238" stroke-miterlimit="10"/>
<path d="M144.374 230.952C144.374 230.952 155.054 233.256 157.358 233.256C159.662 233.256 160.754 230.826 161 229.494C161.24 228.156 161.852 227.43 158.57 227.43C155.288 227.43 146.552 228.282 145.1 228.642C143.642 229.008 142.796 229.854 144.374 230.946V230.952Z" fill="white" stroke="#263238" stroke-miterlimit="10"/>
<path d="M121.976 235.734C121.976 235.734 155.972 228.27 165.98 228.108C165.98 228.108 158.354 209.838 156.128 207.93C153.902 206.022 124.034 212.334 116.102 214.182C108.29 216.006 108.26 216.234 108.308 216.504C108.308 216.504 117.998 224.13 121.97 235.728L121.976 235.734Z" fill="white" stroke="#263238" stroke-miterlimit="10"/>
<path d="M151.04 216.486L153.758 224.442L151.73 224.778C151.364 224.838 151.022 224.862 150.704 224.844C150.386 224.826 150.092 224.76 149.828 224.64C149.564 224.52 149.324 224.34 149.12 224.1C148.916 223.854 148.742 223.536 148.61 223.134C148.502 222.81 148.454 222.528 148.466 222.288C148.478 222.042 148.55 221.838 148.682 221.676C148.814 221.514 149.006 221.388 149.252 221.298C148.91 221.298 148.598 221.232 148.328 221.1C148.058 220.968 147.824 220.776 147.626 220.524C147.428 220.272 147.266 219.96 147.134 219.576C147.002 219.198 146.936 218.85 146.936 218.544C146.936 218.238 146.996 217.968 147.128 217.746C147.254 217.524 147.446 217.338 147.704 217.188C147.962 217.044 148.28 216.936 148.67 216.876L151.046 216.486H151.04ZM151.136 221.436L150.626 221.52C150.326 221.568 150.11 221.652 149.978 221.76C149.846 221.874 149.774 222.024 149.768 222.21C149.768 222.396 149.81 222.624 149.9 222.894C149.996 223.176 150.122 223.386 150.272 223.524C150.422 223.662 150.608 223.74 150.824 223.764C151.04 223.788 151.304 223.776 151.61 223.722L151.904 223.674L151.136 221.436ZM149.876 217.752L149.306 217.848C148.85 217.92 148.574 218.082 148.484 218.322C148.394 218.562 148.424 218.904 148.574 219.348C148.682 219.666 148.814 219.924 148.958 220.11C149.102 220.296 149.282 220.422 149.498 220.494C149.714 220.56 149.966 220.572 150.266 220.524L150.788 220.44L149.87 217.758L149.876 217.752Z" fill="black"/>
<path d="M145.31 217.422L148.028 225.378L146.54 225.624L143.822 217.668L145.31 217.422Z" fill="black"/>
<path d="M142.544 217.878L145.262 225.834L143.75 226.08L141.374 219.126L139.376 219.456L139.034 218.454L142.544 217.878Z" fill="black"/>
<path d="M138.29 218.574L141.008 226.53L139.496 226.776L137.12 219.822L135.122 220.152L134.78 219.15L138.29 218.574Z" fill="black"/>
<path d="M131.918 219.504C132.416 219.42 132.86 219.45 133.256 219.582C133.652 219.714 134 219.948 134.294 220.278C134.588 220.608 134.834 221.034 135.032 221.556L133.82 222.012C133.7 221.706 133.568 221.442 133.424 221.214C133.28 220.986 133.118 220.824 132.944 220.716C132.77 220.608 132.572 220.572 132.35 220.608C132.104 220.65 131.954 220.746 131.9 220.902C131.846 221.058 131.858 221.244 131.93 221.46C132.05 221.808 132.23 222.078 132.47 222.276C132.71 222.474 133.004 222.66 133.352 222.834L134.696 223.548C135.074 223.74 135.398 223.974 135.674 224.244C135.95 224.514 136.16 224.868 136.31 225.306C136.526 225.936 136.502 226.452 136.238 226.854C135.974 227.256 135.512 227.514 134.852 227.622C134.462 227.688 134.12 227.682 133.826 227.61C133.526 227.538 133.268 227.412 133.046 227.238C132.824 227.058 132.632 226.848 132.47 226.602C132.308 226.356 132.164 226.092 132.044 225.804L133.256 225.378C133.352 225.624 133.46 225.84 133.574 226.032C133.688 226.218 133.814 226.362 133.964 226.458C134.114 226.548 134.3 226.578 134.516 226.542C134.738 226.506 134.888 226.404 134.96 226.248C135.032 226.086 135.032 225.9 134.96 225.696C134.87 225.426 134.732 225.216 134.558 225.06C134.384 224.904 134.156 224.754 133.874 224.604L132.542 223.896C132.11 223.674 131.708 223.404 131.336 223.074C130.97 222.744 130.694 222.318 130.514 221.79C130.382 221.412 130.358 221.058 130.43 220.734C130.502 220.41 130.664 220.14 130.916 219.924C131.168 219.708 131.504 219.564 131.918 219.498V219.504Z" fill="black"/>
<path d="M119.9 219.534L155.792 213.072" stroke="#263238" stroke-miterlimit="10"/>
<path d="M149.546 209.724L151.928 213.978" stroke="#263238" stroke-miterlimit="10"/>
<path d="M137.288 211.512L139.964 215.64" stroke="#263238" stroke-miterlimit="10"/>
<path d="M121.904 214.854L123.686 217.53" stroke="#263238" stroke-miterlimit="10"/>
<path d="M118.07 217.044L153.962 210.576" stroke="#263238" stroke-miterlimit="10"/>
<path d="M234.812 199.812C234.812 199.812 242.816 194.826 244.916 195.876C247.016 196.926 244.916 204.666 244.394 206.508L243.872 208.344L234.818 199.812H234.812Z" fill="#4977FF" stroke="#263238" stroke-miterlimit="10"/>
<path d="M239.144 204.276C239.144 204.276 243.998 195.744 245.048 197.19C246.098 198.636 244.394 203.358 244.394 203.358" fill="#4977FF"/>
<path d="M239.144 204.276C239.144 204.276 243.998 195.744 245.048 197.19C246.098 198.636 244.394 203.358 244.394 203.358" stroke="#263238" stroke-miterlimit="10"/>
<path d="M205.94 236.424L216.176 251.124H221.426L225.494 240.234" fill="#263238"/>
<path d="M205.94 236.424L216.176 251.124H221.426L225.494 240.234" stroke="#263238" stroke-miterlimit="10"/>
<path d="M225.098 244.302L228.644 251.124H233.894L237.962 240.234" fill="#263238"/>
<path d="M225.098 244.302L228.644 251.124H233.894L237.962 240.234" stroke="#263238" stroke-miterlimit="10"/>
<path d="M197.804 236.424L208.04 251.124H213.29L217.358 240.234" fill="#4977FF"/>
<path d="M197.804 236.424L208.04 251.124H213.29L217.358 240.234" stroke="#263238" stroke-miterlimit="10"/>
<path d="M198.362 213.348C197.366 215.748 195.014 217.056 193.106 216.264C191.198 215.472 190.46 212.886 191.456 210.486C192.452 208.086 194.804 206.778 196.712 207.57C198.62 208.362 199.358 210.948 198.362 213.348Z" fill="#4977FF" stroke="#263238" stroke-miterlimit="10"/>
<path d="M248.473 221.617C248.788 207.54 236.415 195.847 220.838 195.499C205.26 195.151 192.378 206.28 192.063 220.356C191.749 234.433 204.121 246.126 219.699 246.474C235.276 246.822 248.159 235.693 248.473 221.617Z" fill="#4977FF" stroke="#263238" stroke-miterlimit="10"/>
<path d="M213.554 205.716C213.554 205.716 217.886 194.166 220.508 192.984C223.13 191.802 225.626 198.102 226.412 201.384C227.198 204.666 226.676 205.716 226.676 205.716" fill="#4977FF"/>
<path d="M213.554 205.716C213.554 205.716 217.886 194.166 220.508 192.984C223.13 191.802 225.626 198.102 226.412 201.384C227.198 204.666 226.676 205.716 226.676 205.716" stroke="#263238" stroke-miterlimit="10"/>
<path d="M220.508 192.99C220.508 192.99 217.754 199.554 217.49 202.83C217.226 206.106 216.704 209.262 219.854 208.602C223.004 207.948 226.022 207.03 225.494 202.434" fill="#4977FF"/>
<path d="M220.508 192.99C220.508 192.99 217.754 199.554 217.49 202.83C217.226 206.106 216.704 209.262 219.854 208.602C223.004 207.948 226.022 207.03 225.494 202.434" stroke="#263238" stroke-miterlimit="10"/>
<path d="M237.619 235.279C242.427 234.61 245.814 230.4 245.184 225.878C244.554 221.355 240.146 218.232 235.338 218.902C230.529 219.571 227.142 223.781 227.772 228.303C228.402 232.826 232.811 235.949 237.619 235.279Z" fill="#4977FF" stroke="#263238" stroke-miterlimit="10"/>
<path d="M240.032 235.283C244.84 234.613 248.227 230.404 247.597 225.881C246.967 221.358 242.559 218.235 237.751 218.905C232.942 219.575 229.555 223.784 230.185 228.306C230.815 232.829 235.224 235.952 240.032 235.283Z" fill="#4977FF" stroke="#263238" stroke-miterlimit="10"/>
<path d="M239.666 227.436C239.666 228.996 239.048 230.256 238.286 230.256C237.524 230.256 236.906 228.99 236.906 227.436C236.906 225.882 237.524 224.616 238.286 224.616C239.048 224.616 239.666 225.882 239.666 227.436Z" fill="#263238" stroke="#263238" stroke-miterlimit="10"/>
<path d="M244.916 226.848C244.916 228.408 244.298 229.668 243.536 229.668C242.774 229.668 242.156 228.402 242.156 226.848C242.156 225.294 242.774 224.028 243.536 224.028C244.298 224.028 244.916 225.294 244.916 226.848Z" fill="#263238" stroke="#263238" stroke-miterlimit="10"/>
<path d="M228.626 215.634C228.854 216.774 228.602 217.782 228.068 217.884C227.534 217.992 226.922 217.152 226.694 216.018C226.466 214.878 226.718 213.87 227.252 213.768C227.786 213.66 228.398 214.5 228.626 215.634Z" fill="#263238"/>
<path d="M235.184 214.584C235.412 215.724 235.16 216.732 234.626 216.834C234.092 216.942 233.48 216.102 233.252 214.968C233.024 213.828 233.276 212.82 233.81 212.718C234.344 212.61 234.956 213.45 235.184 214.584Z" fill="#263238"/>
<path d="M225.758 211.362L231.008 208.212" stroke="#263238" stroke-width="3" stroke-miterlimit="10"/>
<path d="M233.63 207.69L237.302 211.494" stroke="#263238" stroke-width="3" stroke-miterlimit="10"/>
<path d="M216.704 244.302L220.244 251.124H225.494L227.858 244.824" fill="#4977FF"/>
<path d="M216.704 244.302L220.244 251.124H225.494L227.858 244.824" stroke="#263238" stroke-miterlimit="10"/>
<path d="M175.844 245.172L143.642 257.28L189.992 272.784L219.71 254.874L175.844 245.172Z" fill="white" stroke="#263238" stroke-miterlimit="10"/>
<path d="M176.252 251.976L183.428 248.574L213.446 255.51L189.788 268.86L175.436 264.954" stroke="#263238" stroke-miterlimit="10"/>
<path d="M180.176 250.086L208.61 257.394" stroke="#263238" stroke-miterlimit="10"/>
<path d="M207.116 254.37L184.508 267.222" stroke="#263238" stroke-miterlimit="10"/>
<path d="M145.688 245.322L109.628 254.736L151.91 273.204L190.76 256.83L145.688 245.322Z" fill="white" stroke="#263238" stroke-miterlimit="10"/>
<path d="M139.04 257.556L128.24 252.498L129.656 252.042C129.914 251.958 130.19 251.904 130.484 251.88C130.778 251.856 131.108 251.868 131.462 251.916C131.822 251.964 132.218 252.06 132.656 252.204C133.094 252.342 133.58 252.54 134.126 252.798C134.564 253.002 134.906 253.188 135.152 253.356C135.398 253.524 135.554 253.668 135.614 253.794C135.674 253.92 135.644 254.028 135.518 254.112C135.818 254.07 136.154 254.082 136.532 254.136C136.91 254.196 137.312 254.298 137.75 254.442C138.188 254.586 138.662 254.784 139.178 255.024C139.694 255.264 140.114 255.492 140.444 255.696C140.774 255.906 140.996 256.092 141.128 256.254C141.254 256.422 141.284 256.566 141.218 256.692C141.152 256.818 140.984 256.926 140.714 257.016L139.058 257.55L139.04 257.556ZM133.706 254.226L134.06 254.112C134.27 254.046 134.372 253.968 134.372 253.872C134.372 253.782 134.27 253.674 134.078 253.548C133.886 253.422 133.604 253.272 133.238 253.104C132.854 252.924 132.524 252.798 132.248 252.72C131.972 252.642 131.726 252.612 131.51 252.618C131.294 252.63 131.084 252.666 130.868 252.732L130.664 252.798L133.706 254.22V254.226ZM138.704 256.566L139.1 256.44C139.418 256.338 139.49 256.2 139.316 256.026C139.142 255.852 138.752 255.624 138.146 255.342C137.708 255.138 137.33 254.982 137.006 254.874C136.682 254.766 136.388 254.7 136.13 254.676C135.872 254.652 135.638 254.676 135.428 254.742L135.068 254.856L138.71 256.56L138.704 256.566Z" fill="black"/>
<path d="M143.024 256.266L132.224 251.208L133.262 250.872L144.062 255.93L143.024 256.266Z" fill="black"/>
<path d="M144.95 255.648L134.15 250.59L135.2 250.248L144.644 254.67L146.036 254.22L147.398 254.856L144.956 255.648H144.95Z" fill="black"/>
<path d="M147.914 254.688L137.114 249.63L138.164 249.288L147.608 253.71L149 253.26L150.362 253.896L147.92 254.688H147.914Z" fill="black"/>
<path d="M152.474 253.332C152.126 253.446 151.712 253.476 151.226 253.434C150.74 253.392 150.194 253.272 149.588 253.08C148.982 252.888 148.316 252.63 147.59 252.3L148.16 251.85C148.586 252.042 148.982 252.204 149.348 252.342C149.714 252.48 150.026 252.57 150.296 252.624C150.56 252.678 150.77 252.678 150.92 252.624C151.088 252.57 151.118 252.486 150.998 252.372C150.878 252.258 150.668 252.132 150.38 252C149.906 251.778 149.468 251.616 149.048 251.514C148.634 251.412 148.178 251.316 147.686 251.238L145.76 250.908C145.226 250.818 144.698 250.698 144.176 250.548C143.654 250.398 143.09 250.182 142.496 249.906C141.644 249.504 141.116 249.156 140.918 248.856C140.72 248.556 140.852 248.328 141.314 248.178C141.584 248.088 141.89 248.052 142.22 248.07C142.556 248.082 142.916 248.142 143.294 248.232C143.678 248.328 144.068 248.448 144.47 248.598C144.872 248.748 145.28 248.91 145.682 249.09L145.082 249.516C144.734 249.36 144.41 249.228 144.116 249.108C143.816 248.994 143.558 248.916 143.324 248.868C143.096 248.82 142.904 248.826 142.754 248.868C142.598 248.916 142.574 249 142.682 249.12C142.79 249.234 142.988 249.36 143.27 249.492C143.636 249.66 143.972 249.792 144.29 249.876C144.608 249.96 144.962 250.038 145.364 250.104L147.266 250.428C147.878 250.524 148.514 250.668 149.186 250.848C149.858 251.028 150.548 251.286 151.256 251.616C151.772 251.856 152.168 252.09 152.45 252.318C152.732 252.546 152.876 252.744 152.888 252.924C152.9 253.098 152.762 253.236 152.474 253.326V253.332Z" fill="black"/>
<path d="M163.166 252.672L136.058 262.374L151.892 269.172L180.578 257.556" stroke="#263238" stroke-miterlimit="10"/>
<path d="M139.796 260.91L156.182 267.42" stroke="#263238" stroke-miterlimit="10"/>
<path d="M143.798 259.494L160.502 265.926" stroke="#263238" stroke-miterlimit="10"/>
<path d="M139.778 264.144L166.718 254.16" stroke="#263238" stroke-miterlimit="10"/>
<path d="M164.828 252.666L178.958 256.782" stroke="#263238" stroke-miterlimit="10"/>
<path d="M160.514 254.064L177.122 258.924" stroke="#263238" stroke-miterlimit="10"/>
<path d="M130.202 253.788H89.816L96.26 270.444L130.202 253.788Z" fill="#C9C9C9" stroke="#263238" stroke-linecap="round" stroke-linejoin="round"/>
<path d="M93.95 255.174H115.496L92.864 262.68" stroke="#263238" stroke-linecap="round" stroke-linejoin="round"/>
<path d="M96.476 270.444L23.762 265.932L14.606 210.498L87.326 213.876L96.476 270.444Z" fill="#C9C9C9" stroke="#263238" stroke-linecap="round" stroke-linejoin="round"/>
<path d="M96.476 270.444L23.762 265.932L14.606 210.498L87.326 213.876L96.476 270.444Z" fill="#C9C9C9" stroke="#263238" stroke-linecap="round" stroke-linejoin="round"/>
<path d="M94.166 270.444L21.446 265.932L12.296 210.498L85.01 213.876L94.166 270.444Z" fill="#C9C9C9" stroke="#263238" stroke-linecap="round" stroke-linejoin="round"/>
<path d="M21.164 263.472L21.596 265.932L96.476 270.444L96.044 267.984L21.164 263.472Z" fill="#263238" stroke="#263238" stroke-linecap="round" stroke-linejoin="round"/>
<path d="M130.202 255.954L96.26 270.444V268.284L130.202 253.788V255.954Z" fill="#C9C9C9" stroke="#263238" stroke-linecap="round" stroke-linejoin="round"/>
</svg>
