<svg width="27" height="26" viewBox="0 0 27 26" fill="none" xmlns="http://www.w3.org/2000/svg">
<path d="M11.333 24.9162C11.333 25.2035 11.2188 25.4791 11.0157 25.6822C10.8125 25.8854 10.537 25.9995 10.2497 25.9995H2.6666C2.09198 25.9995 1.5409 25.7712 1.13458 25.3649C0.728266 24.9586 0.5 24.4075 0.5 23.8329V2.16696C0.5 1.59234 0.728266 1.04126 1.13458 0.634947C1.5409 0.228632 2.09198 0.000366211 2.6666 0.000366211H10.2497C10.537 0.000366211 10.8125 0.114499 11.0157 0.317657C11.2188 0.520815 11.333 0.796356 11.333 1.08366C11.333 1.37097 11.2188 1.64651 11.0157 1.84967C10.8125 2.05283 10.537 2.16696 10.2497 2.16696H2.6666V23.8329H10.2497C10.537 23.8329 10.8125 23.9471 11.0157 24.1502C11.2188 24.3534 11.333 24.6289 11.333 24.9162ZM26.1823 12.2335L20.7658 6.81702C20.5625 6.61375 20.2868 6.49955 19.9994 6.49955C19.7119 6.49955 19.4362 6.61375 19.2329 6.81702C19.0297 7.02029 18.9155 7.29598 18.9155 7.58345C18.9155 7.87092 19.0297 8.14661 19.2329 8.34988L22.801 11.9166H10.2497C9.96237 11.9166 9.68683 12.0308 9.48367 12.2339C9.28052 12.4371 9.16638 12.7126 9.16638 12.9999C9.16638 13.2872 9.28052 13.5628 9.48367 13.7659C9.68683 13.9691 9.96237 14.0832 10.2497 14.0832H22.801L19.2329 17.65C19.0297 17.8533 18.9155 18.129 18.9155 18.4164C18.9155 18.7039 19.0297 18.9796 19.2329 19.1829C19.4362 19.3861 19.7119 19.5003 19.9994 19.5003C20.2868 19.5003 20.5625 19.3861 20.7658 19.1829L26.1823 13.7664C26.283 13.6658 26.3629 13.5463 26.4174 13.4148C26.4719 13.2833 26.5 13.1423 26.5 12.9999C26.5 12.8576 26.4719 12.7166 26.4174 12.5851C26.3629 12.4536 26.283 12.3341 26.1823 12.2335Z" fill="#4977FF"/>
</svg>
