<svg width="22" height="22" viewBox="0 0 22 22" fill="none" xmlns="http://www.w3.org/2000/svg">
<path d="M11 22C13.1756 22 15.3023 21.3549 17.1113 20.1462C18.9202 18.9375 20.3301 17.2195 21.1627 15.2095C21.9952 13.1995 22.2131 10.9878 21.7886 8.85401C21.3642 6.72022 20.3165 4.76021 18.7782 3.22183C17.2398 1.68345 15.2798 0.635803 13.146 0.211366C11.0122 -0.213071 8.80047 0.00476531 6.79048 0.837329C4.7805 1.66989 3.06253 3.07979 1.85384 4.88873C0.645141 6.69767 1.15185e-06 8.82441 9.6165e-07 11C0.00308107 13.9164 1.16299 16.7125 3.22523 18.7748C5.28746 20.837 8.08356 21.9969 11 22ZM11 1.69231C12.8409 1.69231 14.6404 2.2382 16.1711 3.26094C17.7017 4.28368 18.8947 5.73734 19.5992 7.4381C20.3037 9.13886 20.488 11.0103 20.1288 12.8158C19.7697 14.6214 18.8832 16.2798 17.5815 17.5815C16.2798 18.8832 14.6214 19.7697 12.8158 20.1288C11.0103 20.488 9.13886 20.3037 7.4381 19.5992C5.73734 18.8947 4.28368 17.7017 3.26094 16.1711C2.23819 14.6404 1.69231 12.8409 1.69231 11C1.69511 8.53231 2.67664 6.16649 4.42156 4.42156C6.16648 2.67664 8.5323 1.69511 11 1.69231ZM7.01673 10.7525C6.93806 10.6739 6.87565 10.5806 6.83306 10.4779C6.79048 10.3752 6.76857 10.265 6.76857 10.1538C6.76857 10.0426 6.79048 9.93254 6.83306 9.82982C6.87565 9.7271 6.93806 9.63378 7.01673 9.55519L10.4013 6.17058C10.4799 6.09191 10.5733 6.0295 10.676 5.98691C10.7787 5.94433 10.8888 5.92241 11 5.92241C11.1112 5.92241 11.2213 5.94433 11.324 5.98691C11.4267 6.0295 11.5201 6.09191 11.5987 6.17058L14.9833 9.55519C15.142 9.71397 15.2312 9.92931 15.2312 10.1538C15.2312 10.3784 15.142 10.5937 14.9833 10.7525C14.8245 10.9113 14.6092 11.0005 14.3846 11.0005C14.1601 11.0005 13.9447 10.9113 13.786 10.7525L11.8462 8.81164L11.8462 15.2308C11.8462 15.4552 11.757 15.6704 11.5983 15.8291C11.4396 15.9878 11.2244 16.0769 11 16.0769C10.7756 16.0769 10.5604 15.9878 10.4017 15.8291C10.243 15.6704 10.1538 15.4552 10.1538 15.2308L10.1538 8.81164L8.21404 10.7525C8.13545 10.8312 8.04213 10.8936 7.93941 10.9362C7.83669 10.9787 7.72658 11.0007 7.61538 11.0007C7.50419 11.0007 7.39408 10.9787 7.29136 10.9362C7.18864 10.8936 7.09531 10.8312 7.01673 10.7525Z" fill="#E00000"/>
</svg>
