<svg width="27" height="22" viewBox="0 0 27 22" fill="none" xmlns="http://www.w3.org/2000/svg">
<path d="M26.8333 21C26.8333 21.2652 26.728 21.5196 26.5405 21.7071C26.3529 21.8946 26.0986 22 25.8333 22H1.83334C1.56813 22 1.31377 21.8946 1.12624 21.7071C0.9387 21.5196 0.833344 21.2652 0.833344 21V1C0.833344 0.734784 0.9387 0.48043 1.12624 0.292893C1.31377 0.105357 1.56813 0 1.83334 0C2.09856 0 2.35291 0.105357 2.54045 0.292893C2.72799 0.48043 2.83334 0.734784 2.83334 1V14.5863L9.12584 8.2925C9.21872 8.19952 9.32901 8.12576 9.4504 8.07544C9.5718 8.02512 9.70193 7.99921 9.83334 7.99921C9.96476 7.99921 10.0949 8.02512 10.2163 8.07544C10.3377 8.12576 10.448 8.19952 10.5408 8.2925L13.8333 11.5863L20.4196 5H17.8333C17.5681 5 17.3138 4.89464 17.1262 4.70711C16.9387 4.51957 16.8333 4.26522 16.8333 4C16.8333 3.73478 16.9387 3.48043 17.1262 3.29289C17.3138 3.10536 17.5681 3 17.8333 3H22.8333C23.0986 3 23.3529 3.10536 23.5405 3.29289C23.728 3.48043 23.8333 3.73478 23.8333 4V9C23.8333 9.26522 23.728 9.51957 23.5405 9.70711C23.3529 9.89464 23.0986 10 22.8333 10C22.5681 10 22.3138 9.89464 22.1262 9.70711C21.9387 9.51957 21.8333 9.26522 21.8333 9V6.41375L14.5408 13.7075C14.448 13.8005 14.3377 13.8742 14.2163 13.9246C14.0949 13.9749 13.9648 14.0008 13.8333 14.0008C13.7019 14.0008 13.5718 13.9749 13.4504 13.9246C13.329 13.8742 13.2187 13.8005 13.1258 13.7075L9.83334 10.4137L2.83334 17.4137V20H25.8333C26.0986 20 26.3529 20.1054 26.5405 20.2929C26.728 20.4804 26.8333 20.7348 26.8333 21Z" fill="currentColor"/>
</svg>
