<svg width="27" height="28" viewBox="0 0 27 28" fill="none" xmlns="http://www.w3.org/2000/svg">
<path d="M2.65023 13.1415C2.44695 12.9382 2.33275 12.6625 2.33275 12.375C2.33275 12.0876 2.44695 11.8119 2.65023 11.6086C2.85351 11.4053 3.12921 11.2911 3.41669 11.2911C3.70416 11.2911 3.97987 11.4053 4.18315 11.6086L12.0834 19.5101V1.54171C12.0834 1.25439 12.1975 0.978839 12.4007 0.775675C12.6038 0.572511 12.8794 0.458374 13.1667 0.458374C13.454 0.458374 13.7296 0.572511 13.9327 0.775675C14.1359 0.978839 14.25 1.25439 14.25 1.54171V19.5101L22.1502 11.6086C22.2509 11.5079 22.3704 11.4281 22.5019 11.3736C22.6334 11.3191 22.7743 11.2911 22.9167 11.2911C23.059 11.2911 23.2 11.3191 23.3315 11.3736C23.463 11.4281 23.5825 11.5079 23.6831 11.6086C23.7838 11.7092 23.8636 11.8287 23.9181 11.9602C23.9726 12.0917 24.0006 12.2327 24.0006 12.375C24.0006 12.5174 23.9726 12.6583 23.9181 12.7898C23.8636 12.9214 23.7838 13.0408 23.6831 13.1415L13.9331 22.8915C13.8325 22.9922 13.7131 23.0721 13.5815 23.1266C13.45 23.1812 13.3091 23.2092 13.1667 23.2092C13.0243 23.2092 12.8834 23.1812 12.7518 23.1266C12.6203 23.0721 12.5008 22.9922 12.4002 22.8915L2.65023 13.1415ZM25.0834 25.375H1.25002C0.962702 25.375 0.687153 25.4892 0.483988 25.6923C0.280824 25.8955 0.166687 26.1711 0.166687 26.4584C0.166687 26.7457 0.280824 27.0212 0.483988 27.2244C0.687153 27.4276 0.962702 27.5417 1.25002 27.5417H25.0834C25.3707 27.5417 25.6462 27.4276 25.8494 27.2244C26.0526 27.0212 26.1667 26.7457 26.1667 26.4584C26.1667 26.1711 26.0526 25.8955 25.8494 25.6923C25.6462 25.4892 25.3707 25.375 25.0834 25.375Z" fill="#4977FF"/>
</svg>
