<svg width="23" height="22" viewBox="0 0 23 22" fill="none" xmlns="http://www.w3.org/2000/svg">
<path d="M11.5 0C9.32441 0 7.19767 0.645139 5.38873 1.85383C3.57979 3.06253 2.16989 4.78049 1.33733 6.79048C0.504766 8.80047 0.286929 11.0122 0.711367 13.146C1.1358 15.2798 2.18345 17.2398 3.72183 18.7782C5.26021 20.3165 7.22022 21.3642 9.35401 21.7886C11.4878 22.2131 13.6995 21.9952 15.7095 21.1627C17.7195 20.3301 19.4375 18.9202 20.6462 17.1113C21.8549 15.3023 22.5 13.1756 22.5 11C22.4969 8.08356 21.337 5.28746 19.2748 3.22523C17.2125 1.16299 14.4164 0.00307981 11.5 0ZM11.5 20.3077C9.65912 20.3077 7.85957 19.7618 6.32893 18.7391C4.79828 17.7163 3.60529 16.2627 2.90082 14.5619C2.19634 12.8611 2.01202 10.9897 2.37116 9.18416C2.7303 7.37864 3.61677 5.72017 4.91847 4.41847C6.22018 3.11676 7.87865 2.23029 9.68416 1.87115C11.4897 1.51201 13.3611 1.69634 15.0619 2.40081C16.7627 3.10529 18.2163 4.29828 19.2391 5.82892C20.2618 7.35956 20.8077 9.15911 20.8077 11C20.8049 13.4677 19.8234 15.8335 18.0784 17.5784C16.3335 19.3234 13.9677 20.3049 11.5 20.3077ZM15.4833 11.2475C15.5619 11.3261 15.6244 11.4194 15.6669 11.5221C15.7095 11.6248 15.7314 11.735 15.7314 11.8462C15.7314 11.9573 15.7095 12.0675 15.6669 12.1702C15.6244 12.2729 15.5619 12.3662 15.4833 12.4448L12.0987 15.8294C12.0201 15.9081 11.9268 15.9705 11.824 16.0131C11.7213 16.0557 11.6112 16.0776 11.5 16.0776C11.3888 16.0776 11.2787 16.0557 11.176 16.0131C11.0733 15.9705 10.9799 15.9081 10.9013 15.8294L7.51673 12.4448C7.35796 12.286 7.26876 12.0707 7.26876 11.8462C7.26876 11.6216 7.35796 11.4063 7.51673 11.2475C7.67551 11.0887 7.89085 10.9995 8.11539 10.9995C8.33993 10.9995 8.55527 11.0887 8.71404 11.2475L10.6538 13.1884V6.76923C10.6538 6.54482 10.743 6.32959 10.9017 6.17091C11.0604 6.01222 11.2756 5.92308 11.5 5.92308C11.7244 5.92308 11.9396 6.01222 12.0983 6.17091C12.257 6.32959 12.3462 6.54482 12.3462 6.76923V13.1884L14.286 11.2475C14.3645 11.1688 14.4579 11.1064 14.5606 11.0638C14.6633 11.0212 14.7734 10.9993 14.8846 10.9993C14.9958 10.9993 15.1059 11.0212 15.2086 11.0638C15.3114 11.1064 15.4047 11.1688 15.4833 11.2475Z" fill="#3FCD1B"/>
</svg>
