<svg width="23" height="22" viewBox="0 0 23 22" fill="none" xmlns="http://www.w3.org/2000/svg">
<path d="M11.5 0C9.32441 0 7.19767 0.645139 5.38873 1.85383C3.57979 3.06253 2.16989 4.78049 1.33733 6.79048C0.504766 8.80047 0.286929 11.0122 0.711367 13.146C1.1358 15.2798 2.18345 17.2398 3.72183 18.7782C5.26021 20.3165 7.22022 21.3642 9.35401 21.7886C11.4878 22.2131 13.6995 21.9952 15.7095 21.1627C17.7195 20.3301 19.4375 18.9202 20.6462 17.1113C21.8549 15.3023 22.5 13.1756 22.5 11C22.4969 8.08356 21.337 5.28746 19.2748 3.22523C17.2125 1.16299 14.4164 0.00307981 11.5 0ZM11.5 20.3077C9.65911 20.3077 7.85957 19.7618 6.32893 18.7391C4.79829 17.7163 3.60529 16.2627 2.90082 14.5619C2.19634 12.8611 2.01202 10.9897 2.37116 9.18416C2.7303 7.37864 3.61677 5.72017 4.91847 4.41847C6.22018 3.11676 7.87865 2.23029 9.68416 1.87115C11.4897 1.51201 13.3611 1.69634 15.0619 2.40081C16.7627 3.10529 18.2163 4.29828 19.2391 5.82892C20.2618 7.35956 20.8077 9.15911 20.8077 11C20.8049 13.4677 19.8234 15.8335 18.0784 17.5784C16.3335 19.3234 13.9677 20.3049 11.5 20.3077ZM15.7308 13.1154C15.7308 13.9008 15.4188 14.6541 14.8634 15.2095C14.308 15.7649 13.5547 16.0769 12.7692 16.0769H12.3462V16.9231C12.3462 17.1475 12.257 17.3627 12.0983 17.5214C11.9396 17.6801 11.7244 17.7692 11.5 17.7692C11.2756 17.7692 11.0604 17.6801 10.9017 17.5214C10.743 17.3627 10.6538 17.1475 10.6538 16.9231V16.0769H8.96154C8.73713 16.0769 8.5219 15.9878 8.36322 15.8291C8.20454 15.6704 8.11539 15.4552 8.11539 15.2308C8.11539 15.0064 8.20454 14.7911 8.36322 14.6324C8.5219 14.4738 8.73713 14.3846 8.96154 14.3846H12.7692C13.1059 14.3846 13.4287 14.2509 13.6667 14.0129C13.9047 13.7748 14.0385 13.452 14.0385 13.1154C14.0385 12.7788 13.9047 12.4559 13.6667 12.2179C13.4287 11.9799 13.1059 11.8462 12.7692 11.8462H10.2308C9.44532 11.8462 8.69205 11.5341 8.13665 10.9787C7.58125 10.4233 7.26923 9.67006 7.26923 8.88461C7.26923 8.09916 7.58125 7.34589 8.13665 6.79049C8.69205 6.23509 9.44532 5.92308 10.2308 5.92308H10.6538V5.07692C10.6538 4.85251 10.743 4.63729 10.9017 4.4786C11.0604 4.31992 11.2756 4.23077 11.5 4.23077C11.7244 4.23077 11.9396 4.31992 12.0983 4.4786C12.257 4.63729 12.3462 4.85251 12.3462 5.07692V5.92308H14.0385C14.2629 5.92308 14.4781 6.01222 14.6368 6.17091C14.7955 6.32959 14.8846 6.54482 14.8846 6.76923C14.8846 6.99364 14.7955 7.20887 14.6368 7.36755C14.4781 7.52623 14.2629 7.61538 14.0385 7.61538H10.2308C9.89415 7.61538 9.57132 7.7491 9.33329 7.98713C9.09526 8.22516 8.96154 8.54799 8.96154 8.88461C8.96154 9.22123 9.09526 9.54407 9.33329 9.78209C9.57132 10.0201 9.89415 10.1538 10.2308 10.1538H12.7692C13.5547 10.1538 14.308 10.4659 14.8634 11.0213C15.4188 11.5767 15.7308 12.3299 15.7308 13.1154Z" fill="#FEFEFE"/>
</svg>
