<svg width="26" height="26" viewBox="0 0 26 26" fill="none" xmlns="http://www.w3.org/2000/svg">
<path d="M13.0011 7.42893C11.8993 7.42893 10.8222 7.75567 9.906 8.36782C8.98985 8.97997 8.2758 9.85005 7.85414 10.868C7.43248 11.886 7.32216 13.0061 7.53712 14.0868C7.75208 15.1675 8.28267 16.1601 9.06179 16.9393C9.84091 17.7184 10.8336 18.249 11.9142 18.4639C12.9949 18.6789 14.1151 18.5686 15.133 18.1469C16.151 17.7253 17.0211 17.0112 17.6332 16.0951C18.2454 15.1789 18.5721 14.1018 18.5721 13C18.5706 11.5229 17.9832 10.1068 16.9387 9.06234C15.8943 8.01791 14.4782 7.43047 13.0011 7.42893ZM13.0011 16.714C12.2665 16.714 11.5485 16.4962 10.9377 16.0881C10.3269 15.68 9.8509 15.0999 9.56979 14.4213C9.28869 13.7426 9.21514 12.9958 9.35844 12.2754C9.50175 11.5549 9.85548 10.8932 10.3749 10.3737C10.8943 9.85434 11.5561 9.50061 12.2765 9.3573C12.997 9.214 13.7437 9.28755 14.4224 9.56865C15.101 9.84976 15.6811 10.3258 16.0892 10.9366C16.4973 11.5473 16.7151 12.2654 16.7151 13C16.7151 13.985 16.3238 14.9297 15.6273 15.6262C14.9308 16.3227 13.9861 16.714 13.0011 16.714ZM25.7611 10.587C25.7352 10.4563 25.6815 10.3326 25.6036 10.2245C25.5257 10.1163 25.4254 10.0262 25.3096 9.96027L21.8474 7.98719L21.8335 4.08515C21.8331 3.95077 21.8035 3.81808 21.7468 3.69624C21.6901 3.57441 21.6076 3.46634 21.505 3.37949C20.2492 2.31716 18.8029 1.50306 17.2432 0.980466C17.1204 0.938892 16.9902 0.923506 16.8611 0.9353C16.7319 0.947094 16.6067 0.985806 16.4934 1.04894L13.0011 3.00112L9.50528 1.04546C9.39195 0.981969 9.26655 0.942964 9.1372 0.930969C9.00785 0.918974 8.87743 0.934254 8.75435 0.975823C7.1958 1.50224 5.75121 2.31944 4.49716 3.38413C4.39475 3.47085 4.31236 3.57874 4.25566 3.70036C4.19895 3.82198 4.16929 3.95445 4.1687 4.08863L4.15129 7.99416L0.689128 9.96723C0.573299 10.0332 0.473024 10.1233 0.395119 10.2314C0.317214 10.3396 0.263505 10.4632 0.237642 10.594C-0.0792142 12.1862 -0.0792142 13.8253 0.237642 15.4176C0.263505 15.5483 0.317214 15.672 0.395119 15.7801C0.473024 15.8882 0.573299 15.9784 0.689128 16.0443L4.15129 18.0174L4.16522 21.9194C4.16564 22.0538 4.19522 22.1865 4.25193 22.3083C4.30864 22.4302 4.39112 22.5382 4.49368 22.6251C5.74956 23.6874 7.1958 24.5015 8.75551 25.0241C8.87834 25.0657 9.00851 25.0811 9.13765 25.0693C9.26678 25.0575 9.39201 25.0188 9.50528 24.9556L13.0011 22.9988L16.4969 24.9545C16.6353 25.0315 16.7912 25.0715 16.9496 25.0705C17.051 25.0705 17.1517 25.054 17.2478 25.0218C18.8062 24.4961 20.2508 23.6796 21.505 22.6158C21.6074 22.5291 21.6898 22.4212 21.7465 22.2996C21.8032 22.1779 21.8329 22.0455 21.8335 21.9113L21.8509 18.0058L25.3131 16.0327C25.4289 15.9667 25.5292 15.8766 25.6071 15.7685C25.685 15.6603 25.7387 15.5367 25.7646 15.4059C26.0796 13.815 26.0785 12.1775 25.7611 10.587ZM24.0201 14.6388L20.7042 16.5248C20.5589 16.6074 20.4386 16.7277 20.356 16.873C20.2887 16.989 20.2179 17.1121 20.1459 17.2281C20.0538 17.3745 20.0048 17.5438 20.0043 17.7168L19.9869 21.4598C19.0957 22.1597 18.1027 22.7194 17.0424 23.1195L13.6975 21.2555C13.5586 21.1787 13.4024 21.1387 13.2437 21.1395H13.2216C13.0812 21.1395 12.9396 21.1395 12.7991 21.1395C12.633 21.1353 12.4688 21.1754 12.3233 21.2555L8.97603 23.1241C7.91349 22.7271 6.9178 22.1702 6.02339 21.4726L6.01062 17.7353C6.01005 17.5621 5.961 17.3924 5.86902 17.2455C5.79706 17.1295 5.72627 17.0134 5.66011 16.8904C5.57808 16.7429 5.4578 16.6202 5.31192 16.5352L1.99252 14.6446C1.82074 13.558 1.82074 12.4512 1.99252 11.3646L5.30264 9.47512C5.44792 9.39251 5.56821 9.27222 5.65082 9.12693C5.71814 9.01087 5.78894 8.88784 5.8609 8.77178C5.95301 8.62542 6.00208 8.45609 6.0025 8.28315L6.01991 4.54012C6.91119 3.8402 7.90414 3.28051 8.96443 2.88042L12.3047 4.74439C12.4501 4.82497 12.6144 4.86506 12.7806 4.86045C12.921 4.86045 13.0626 4.86045 13.203 4.86045C13.3691 4.8646 13.5334 4.82455 13.6789 4.74439L17.0262 2.87578C18.0887 3.2728 19.0844 3.82974 19.9788 4.52735L19.9916 8.26458C19.9922 8.43786 20.0412 8.60752 20.1332 8.75437C20.2051 8.87043 20.2759 8.9865 20.3421 9.10952C20.4241 9.25705 20.5444 9.37974 20.6903 9.46468L24.0097 11.3553C24.1837 12.4427 24.1857 13.5508 24.0155 14.6388H24.0201Z" fill="#245BFF"/>
</svg>
