<svg width="32" height="33" viewBox="0 0 32 33" fill="none" xmlns="http://www.w3.org/2000/svg">
<path d="M28.865 27C26.9613 23.7087 24.0275 21.3487 20.6038 20.23C22.2973 19.2218 23.6131 17.6856 24.349 15.8572C25.085 14.0289 25.2004 12.0095 24.6776 10.1092C24.1548 8.20887 23.0226 6.53272 21.455 5.33814C19.8873 4.14355 17.9709 3.49658 16 3.49658C14.0291 3.49658 12.1127 4.14355 10.545 5.33814C8.9774 6.53272 7.84525 8.20887 7.32243 10.1092C6.79961 12.0095 6.91504 14.0289 7.65099 15.8572C8.38694 17.6856 9.70271 19.2218 11.3963 20.23C7.9725 21.3475 5.03875 23.7075 3.135 27C3.06519 27.1138 3.01888 27.2405 2.99881 27.3725C2.97875 27.5045 2.98532 27.6392 3.01816 27.7687C3.05099 27.8981 3.10942 28.0197 3.18999 28.1262C3.27056 28.2326 3.37165 28.3219 3.48728 28.3887C3.60292 28.4555 3.73076 28.4985 3.86326 28.515C3.99577 28.5316 4.13025 28.5215 4.25878 28.4853C4.38731 28.449 4.50728 28.3874 4.61161 28.3041C4.71595 28.2207 4.80253 28.1173 4.86625 28C7.22125 23.93 11.3838 21.5 16 21.5C20.6163 21.5 24.7788 23.93 27.1338 28C27.1975 28.1173 27.2841 28.2207 27.3884 28.3041C27.4927 28.3874 27.6127 28.449 27.7412 28.4853C27.8698 28.5215 28.0042 28.5316 28.1367 28.515C28.2692 28.4985 28.3971 28.4555 28.5127 28.3887C28.6284 28.3219 28.7294 28.2326 28.81 28.1262C28.8906 28.0197 28.949 27.8981 28.9818 27.7687C29.0147 27.6392 29.0213 27.5045 29.0012 27.3725C28.9811 27.2405 28.9348 27.1138 28.865 27ZM9 12.5C9 11.1155 9.41055 9.76214 10.1797 8.61099C10.9489 7.45985 12.0421 6.56264 13.3212 6.03283C14.6003 5.50301 16.0078 5.36439 17.3656 5.63449C18.7235 5.90458 19.9708 6.57127 20.9497 7.55023C21.9287 8.5292 22.5954 9.77648 22.8655 11.1344C23.1356 12.4922 22.997 13.8997 22.4672 15.1788C21.9373 16.4578 21.0401 17.5511 19.889 18.3203C18.7379 19.0894 17.3845 19.5 16 19.5C14.1441 19.498 12.3648 18.7599 11.0524 17.4475C9.74012 16.1352 9.00199 14.3559 9 12.5Z" fill="#4977FF"/>
</svg>
