<svg width="343" height="237" viewBox="0 0 343 237" fill="none" xmlns="http://www.w3.org/2000/svg">
<path d="M22.3727 216.452H320.518" stroke="#263238" stroke-miterlimit="10"/>
<path d="M35.361 137.237L41.3932 197.103" stroke="#263238" stroke-width="2" stroke-miterlimit="10"/>
<path d="M40.4191 185.647L37.6888 182.656" stroke="#263238" stroke-width="2" stroke-miterlimit="10"/>
<path d="M38.5166 183.552C38.5111 183.094 38.4111 182.643 38.2234 182.228C38.0357 181.814 37.7645 181.445 37.4281 181.149C36.7284 180.499 33.0377 178.892 32.6856 180.238C32.306 181.703 36.0836 184.585 38.5166 183.552Z" fill="#4977FF" stroke="#263238" stroke-miterlimit="10"/>
<path d="M38.5166 183.552L35.0043 181.281" stroke="#263238" stroke-width="0.5" stroke-miterlimit="10"/>
<path d="M41.1051 192.458L38.3748 189.467" stroke="#263238" stroke-width="2" stroke-miterlimit="10"/>
<path d="M39.2026 190.363C39.1974 189.905 39.0975 189.454 38.9098 189.039C38.722 188.625 38.4507 188.257 38.1141 187.96C37.4144 187.311 33.7237 185.699 33.3716 187.045C32.992 188.514 36.7696 191.392 39.2026 190.363Z" fill="#4977FF" stroke="#263238" stroke-miterlimit="10"/>
<path d="M39.2026 190.363L35.6902 188.093" stroke="#263238" stroke-width="0.5" stroke-miterlimit="10"/>
<path d="M38.7452 169.033L36.015 166.042" stroke="#263238" stroke-width="2" stroke-miterlimit="10"/>
<path d="M36.8428 166.938C36.8373 166.481 36.7377 166.03 36.5508 165.615C36.3639 165.201 36.094 164.833 35.7589 164.535C35.0546 163.885 31.3639 162.274 31.0118 163.625C30.6413 165.089 34.4098 167.967 36.8428 166.938Z" fill="#4977FF" stroke="#263238" stroke-miterlimit="10"/>
<path d="M36.8428 166.938L33.3304 164.668" stroke="#263238" stroke-width="0.5" stroke-miterlimit="10"/>
<path d="M39.4313 175.84L36.701 172.849" stroke="#263238" stroke-width="2" stroke-miterlimit="10"/>
<path d="M37.5287 173.745C37.5233 173.287 37.4233 172.835 37.2355 172.421C37.0478 172.006 36.7766 171.638 36.4403 171.342C35.7406 170.692 32.0499 169.085 31.6977 170.431C31.3182 171.896 35.0957 174.778 37.5287 173.745Z" fill="#4977FF" stroke="#263238" stroke-miterlimit="10"/>
<path d="M37.5287 173.745L34.0164 171.474" stroke="#263238" stroke-width="0.5" stroke-miterlimit="10"/>
<path d="M37.634 157.97L34.8991 154.979" stroke="#263238" stroke-width="2" stroke-miterlimit="10"/>
<path d="M35.7314 155.875C35.7259 155.417 35.626 154.966 35.4382 154.551C35.2505 154.137 34.9793 153.769 34.643 153.472C33.9433 152.827 30.248 151.215 29.9004 152.562C29.5163 154.05 33.2984 156.894 35.7314 155.875Z" fill="#4977FF" stroke="#263238" stroke-miterlimit="10"/>
<path d="M35.7314 155.875L32.2145 153.604" stroke="#263238" stroke-width="0.5" stroke-miterlimit="10"/>
<path d="M36.5135 146.864L33.7832 143.873" stroke="#263238" stroke-width="2" stroke-miterlimit="10"/>
<path d="M34.611 144.769C34.6055 144.311 34.5055 143.86 34.3178 143.445C34.13 143.031 33.8589 142.663 33.5225 142.366C32.8228 141.717 29.1321 140.105 28.78 141.456C28.4004 142.92 32.1779 145.798 34.611 144.769Z" fill="#4977FF" stroke="#263238" stroke-miterlimit="10"/>
<path d="M34.611 144.769L31.0986 142.499" stroke="#263238" stroke-width="0.5" stroke-miterlimit="10"/>
<path d="M39.9617 181.618L42.038 178.105" stroke="#263238" stroke-width="2" stroke-miterlimit="10"/>
<path d="M41.407 179.172C41.3202 178.723 41.3276 178.26 41.4286 177.814C41.5296 177.369 41.7219 176.951 41.9924 176.589C42.5457 175.802 45.8385 173.437 46.4514 174.693C47.1053 176.025 43.9909 179.646 41.407 179.172Z" fill="#4977FF" stroke="#263238" stroke-miterlimit="10"/>
<path d="M41.4069 179.162L44.5717 176.025" stroke="#263238" stroke-width="0.5" stroke-miterlimit="10"/>
<path d="M38.1553 163.701L40.2361 160.188" stroke="#263238" stroke-width="2" stroke-miterlimit="10"/>
<path d="M39.6005 161.245C39.5149 160.796 39.5229 160.334 39.6239 159.888C39.7248 159.443 39.9164 159.025 40.1858 158.662C40.7438 157.875 44.0366 155.51 44.6448 156.766C45.3126 158.107 42.189 161.729 39.6005 161.245Z" fill="#4977FF" stroke="#263238" stroke-miterlimit="10"/>
<path d="M39.6005 161.245L42.7652 158.107" stroke="#263238" stroke-width="0.5" stroke-miterlimit="10"/>
<path d="M37.3641 155.827L39.4404 152.315" stroke="#263238" stroke-width="2" stroke-miterlimit="10"/>
<path d="M38.8093 153.367C38.7226 152.919 38.73 152.456 38.831 152.01C38.932 151.564 39.1242 151.146 39.3947 150.784C39.9526 150.002 43.2409 147.637 43.8537 148.888C44.5168 150.23 41.3932 153.856 38.8093 153.367Z" fill="#4977FF" stroke="#263238" stroke-miterlimit="10"/>
<path d="M38.8093 153.367L41.974 150.234" stroke="#263238" stroke-width="0.5" stroke-miterlimit="10"/>
<path d="M36.2025 144.286L38.2787 140.773" stroke="#263238" stroke-width="2" stroke-miterlimit="10"/>
<path d="M37.6476 141.826C37.5609 141.377 37.5683 140.914 37.6693 140.468C37.7703 140.022 37.9625 139.604 38.233 139.242C38.7864 138.455 42.0792 136.09 42.692 137.346C43.3551 138.688 40.2453 142.314 37.6476 141.826Z" fill="#4977FF" stroke="#263238" stroke-miterlimit="10"/>
<path d="M37.6476 141.826L40.8124 138.692" stroke="#263238" stroke-width="0.5" stroke-miterlimit="10"/>
<path d="M35.3107 136.901C35.2251 136.452 35.2331 135.989 35.3341 135.544C35.435 135.098 35.6266 134.68 35.896 134.317C36.454 133.535 39.7468 131.17 40.3596 132.421C41.0228 133.763 37.8992 137.389 35.3107 136.901Z" fill="#4977FF" stroke="#263238" stroke-miterlimit="10"/>
<path d="M35.3107 136.901L38.4754 133.768" stroke="#263238" stroke-width="0.5" stroke-miterlimit="10"/>
<path d="M35.4982 137.038C35.0578 137.08 34.614 137.024 34.1966 136.872C33.7792 136.721 33.398 136.478 33.0789 136.161C32.3837 135.507 30.4584 131.867 31.7069 131.364C33.0835 130.824 36.2345 134.422 35.4982 137.038Z" fill="#4977FF" stroke="#263238" stroke-miterlimit="10"/>
<path d="M35.4982 137.038L32.8182 133.445" stroke="#263238" stroke-width="0.5" stroke-miterlimit="10"/>
<path d="M51.2625 145.48L45.2668 205.356" stroke="#263238" stroke-width="2" stroke-miterlimit="10"/>
<path d="M46.5931 193.937L44.5122 190.425" stroke="#263238" stroke-width="2" stroke-miterlimit="10"/>
<path d="M45.1479 191.496C45.2335 191.047 45.2255 190.584 45.1245 190.139C45.0236 189.693 44.832 189.275 44.5626 188.913C44.0046 188.131 40.7118 185.765 40.099 187.017C39.4359 188.344 42.564 191.97 45.1479 191.496Z" fill="#4977FF" stroke="#263238" stroke-miterlimit="10"/>
<path d="M45.1479 191.477L42.1616 188.505" stroke="#263238" stroke-width="0.5" stroke-miterlimit="10"/>
<path d="M48.2578 177.319L46.1769 173.806" stroke="#263238" stroke-width="2" stroke-miterlimit="10"/>
<path d="M46.8126 174.863C46.8981 174.414 46.8901 173.952 46.7892 173.506C46.6882 173.061 46.4966 172.643 46.2272 172.28C45.6693 171.493 42.3765 169.133 41.7636 170.384C41.1005 171.725 44.2241 175.352 46.8126 174.863Z" fill="#4977FF" stroke="#263238" stroke-miterlimit="10"/>
<path d="M46.8126 174.863L43.8217 171.891" stroke="#263238" stroke-width="0.5" stroke-miterlimit="10"/>
<path d="M47.5763 184.13L45.4955 180.618" stroke="#263238" stroke-width="2" stroke-miterlimit="10"/>
<path d="M46.1312 181.67C46.2167 181.221 46.2087 180.758 46.1078 180.313C46.0068 179.867 45.8152 179.449 45.5458 179.087C44.9879 178.305 41.6951 175.939 41.0822 177.191C40.4191 178.537 43.5427 182.158 46.1312 181.67Z" fill="#4977FF" stroke="#263238" stroke-miterlimit="10"/>
<path d="M46.1312 181.67L43.1403 178.698" stroke="#263238" stroke-width="0.5" stroke-miterlimit="10"/>
<path d="M49.3646 166.256L47.2837 162.748" stroke="#263238" stroke-width="2" stroke-miterlimit="10"/>
<path d="M47.9194 163.8C48.0049 163.351 47.9969 162.888 47.8959 162.443C47.795 161.997 47.6034 161.579 47.334 161.217C46.776 160.43 43.4832 158.069 42.8704 159.321C42.2073 160.686 45.3354 164.288 47.9194 163.8Z" fill="#4977FF" stroke="#263238" stroke-miterlimit="10"/>
<path d="M47.9194 163.8L44.933 160.828" stroke="#263238" stroke-width="0.5" stroke-miterlimit="10"/>
<path d="M50.4758 155.15L48.3995 151.637" stroke="#263238" stroke-width="2" stroke-miterlimit="10"/>
<path d="M49.0307 152.69C49.1174 152.241 49.11 151.778 49.009 151.332C48.908 150.886 48.7158 150.468 48.4453 150.106C47.8874 149.324 44.5946 146.959 43.9817 148.21C43.3186 149.556 46.4468 153.178 49.0307 152.69Z" fill="#4977FF" stroke="#263238" stroke-miterlimit="10"/>
<path d="M49.0307 152.69L46.0443 149.718" stroke="#263238" stroke-width="0.5" stroke-miterlimit="10"/>
<path d="M46.9453 189.894L49.6755 186.903" stroke="#263238" stroke-width="2" stroke-miterlimit="10"/>
<path d="M48.8477 187.799C48.8518 187.341 48.9506 186.89 49.1376 186.475C49.3246 186.06 49.5954 185.692 49.9316 185.396C50.6359 184.746 54.3266 183.135 54.6741 184.481C55.0583 185.945 51.2807 188.827 48.8477 187.799Z" fill="#4977FF" stroke="#263238" stroke-miterlimit="10"/>
<path d="M48.8477 187.799L52.5658 185.405" stroke="#263238" stroke-width="0.5" stroke-miterlimit="10"/>
<path d="M48.738 171.977L51.4683 168.981" stroke="#263238" stroke-width="2" stroke-miterlimit="10"/>
<path d="M50.6405 169.877C50.646 169.419 50.746 168.968 50.9337 168.553C51.1214 168.139 51.3926 167.771 51.729 167.474C52.4287 166.824 56.1194 165.213 56.4715 166.564C56.8511 168.028 53.0735 170.905 50.6405 169.877Z" fill="#4977FF" stroke="#263238" stroke-miterlimit="10"/>
<path d="M50.6405 169.877L54.3586 167.488" stroke="#263238" stroke-width="0.5" stroke-miterlimit="10"/>
<path d="M49.5292 164.099L52.2595 161.108" stroke="#263238" stroke-width="2" stroke-miterlimit="10"/>
<path d="M51.4271 162.004C51.4326 161.546 51.5326 161.094 51.7203 160.68C51.9081 160.265 52.1792 159.897 52.5156 159.601C53.2153 158.951 56.906 157.34 57.2581 158.686C57.624 160.15 53.8647 163.056 51.4271 162.004Z" fill="#4977FF" stroke="#263238" stroke-miterlimit="10"/>
<path d="M51.4271 162.004L55.1498 159.61" stroke="#263238" stroke-width="0.5" stroke-miterlimit="10"/>
<path d="M50.6816 152.557L53.4165 149.561" stroke="#263238" stroke-width="2" stroke-miterlimit="10"/>
<path d="M52.5933 150.462C52.5985 150.004 52.6984 149.552 52.8861 149.138C53.0739 148.723 53.3452 148.355 53.6818 148.059C54.3815 147.405 58.0722 145.793 58.4243 147.144C58.7948 148.609 55.0172 151.49 52.5933 150.462Z" fill="#4977FF" stroke="#263238" stroke-miterlimit="10"/>
<path d="M52.5842 150.462L56.3069 148.068" stroke="#263238" stroke-width="0.5" stroke-miterlimit="10"/>
<path d="M51.2808 145.144C51.2863 144.686 51.3858 144.235 51.5727 143.821C51.7596 143.406 52.0296 143.038 52.3646 142.74C53.0689 142.091 56.7596 140.479 57.1072 141.826C57.4914 143.29 53.7138 146.172 51.2808 145.144Z" fill="#4977FF" stroke="#263238" stroke-miterlimit="10"/>
<path d="M51.2808 145.144L54.9989 142.75" stroke="#263238" stroke-width="0.5" stroke-miterlimit="10"/>
<path d="M51.4317 145.314C50.9934 145.261 50.5711 145.111 50.1932 144.875C49.8154 144.639 49.4907 144.321 49.2411 143.944C48.6923 143.153 47.5306 139.181 48.8615 138.958C50.3066 138.721 52.6756 142.916 51.4317 145.314Z" fill="#4977FF" stroke="#263238" stroke-miterlimit="10"/>
<path d="M51.4317 145.314L49.5246 141.233" stroke="#263238" stroke-width="0.5" stroke-miterlimit="10"/>
<path d="M44.3933 121.098V196.814" stroke="#263238" stroke-width="2" stroke-miterlimit="10"/>
<path d="M44.4528 185.429L42.0335 182.158" stroke="#263238" stroke-width="2" stroke-miterlimit="10"/>
<path d="M42.7698 183.139C42.8103 182.683 42.7561 182.224 42.611 181.791C42.4658 181.359 42.2331 180.963 41.9283 180.632C41.2972 179.911 37.7849 177.916 37.3001 179.21C36.7742 180.632 40.2453 183.912 42.7698 183.139Z" fill="#4977FF" stroke="#263238" stroke-miterlimit="10"/>
<path d="M42.7698 183.139L39.4999 180.504" stroke="#263238" stroke-width="0.5" stroke-miterlimit="10"/>
<path d="M44.4528 171.199L42.0335 167.933" stroke="#263238" stroke-width="2" stroke-miterlimit="10"/>
<path d="M42.7698 168.91C42.8102 168.455 42.756 167.996 42.6109 167.564C42.4657 167.132 42.233 166.738 41.9283 166.407C41.2972 165.682 37.7849 163.686 37.3001 164.985C36.7742 166.407 40.2453 169.692 42.7698 168.91Z" fill="#4977FF" stroke="#263238" stroke-miterlimit="10"/>
<path d="M42.7698 168.91L39.4999 166.274" stroke="#263238" stroke-width="0.5" stroke-miterlimit="10"/>
<path d="M44.4528 154.496L42.0335 151.225" stroke="#263238" stroke-width="2" stroke-miterlimit="10"/>
<path d="M42.7698 152.206C42.8103 151.75 42.7561 151.29 42.611 150.858C42.4658 150.426 42.2331 150.03 41.9283 149.699C41.2972 148.978 37.7849 146.983 37.3001 148.277C36.7742 149.699 40.2453 152.969 42.7698 152.206Z" fill="#4977FF" stroke="#263238" stroke-miterlimit="10"/>
<path d="M42.7698 152.206L39.4999 149.571" stroke="#263238" stroke-width="0.5" stroke-miterlimit="10"/>
<path d="M44.4528 143.376L42.0335 140.105" stroke="#263238" stroke-width="2" stroke-miterlimit="10"/>
<path d="M42.7698 141.086C42.8103 140.63 42.7561 140.17 42.611 139.738C42.4658 139.305 42.2331 138.91 41.9283 138.579C41.2972 137.858 37.7849 135.858 37.3001 137.157C36.7742 138.579 40.2453 141.849 42.7698 141.086Z" fill="#4977FF" stroke="#263238" stroke-miterlimit="10"/>
<path d="M42.7698 141.086L39.4999 138.451" stroke="#263238" stroke-width="0.5" stroke-miterlimit="10"/>
<path d="M44.4528 132.203L42.0335 128.937" stroke="#263238" stroke-width="2" stroke-miterlimit="10"/>
<path d="M42.7698 129.919C42.8103 129.463 42.7561 129.003 42.611 128.571C42.4658 128.138 42.2331 127.743 41.9283 127.411C41.2972 126.691 37.7849 124.69 37.3001 125.989C36.7742 127.411 40.2453 130.682 42.7698 129.919Z" fill="#4977FF" stroke="#263238" stroke-miterlimit="10"/>
<path d="M42.7698 129.919L39.4999 127.283" stroke="#263238" stroke-width="0.5" stroke-miterlimit="10"/>
<path d="M44.3979 189.775L46.8172 186.505" stroke="#263238" stroke-width="2" stroke-miterlimit="10"/>
<path d="M46.0809 187.486C46.0404 187.03 46.0946 186.57 46.2397 186.138C46.3849 185.705 46.6176 185.31 46.9224 184.979C47.5535 184.258 51.0658 182.258 51.5506 183.557C52.0765 184.979 48.6054 188.249 46.0809 187.486Z" fill="#4977FF" stroke="#263238" stroke-miterlimit="10"/>
<path d="M46.0809 187.486L49.5429 184.708" stroke="#263238" stroke-width="0.5" stroke-miterlimit="10"/>
<path d="M44.3979 167.147L46.8172 163.876" stroke="#263238" stroke-width="2" stroke-miterlimit="10"/>
<path d="M46.0809 164.857C46.0404 164.401 46.0946 163.942 46.2397 163.509C46.3849 163.077 46.6176 162.681 46.9224 162.35C47.5535 161.629 51.0658 159.629 51.5506 160.928C52.0765 162.35 48.6054 165.62 46.0809 164.857Z" fill="#4977FF" stroke="#263238" stroke-miterlimit="10"/>
<path d="M46.0809 164.857L49.5429 162.08" stroke="#263238" stroke-width="0.5" stroke-miterlimit="10"/>
<path d="M44.3979 155.974L46.8172 152.704" stroke="#263238" stroke-width="2" stroke-miterlimit="10"/>
<path d="M46.0809 153.685C46.0404 153.229 46.0946 152.769 46.2397 152.337C46.3849 151.904 46.6176 151.509 46.9224 151.178C47.5535 150.457 51.0658 148.462 51.5506 149.756C52.0765 151.178 48.6054 154.448 46.0809 153.685Z" fill="#4977FF" stroke="#263238" stroke-miterlimit="10"/>
<path d="M46.0809 153.685L49.5429 150.907" stroke="#263238" stroke-width="0.5" stroke-miterlimit="10"/>
<path d="M44.3979 141.214L46.8172 137.943" stroke="#263238" stroke-width="2" stroke-miterlimit="10"/>
<path d="M46.0809 138.925C46.0404 138.469 46.0946 138.009 46.2397 137.577C46.3849 137.144 46.6176 136.749 46.9224 136.417C47.5535 135.697 51.0658 133.696 51.5506 134.995C52.0765 136.417 48.6054 139.688 46.0809 138.925Z" fill="#4977FF" stroke="#263238" stroke-miterlimit="10"/>
<path d="M46.0809 138.925L49.5429 136.147" stroke="#263238" stroke-width="0.5" stroke-miterlimit="10"/>
<path d="M44.3979 129.606L46.8172 126.335" stroke="#263238" stroke-width="2" stroke-miterlimit="10"/>
<path d="M46.0809 127.316C46.0404 126.86 46.0946 126.401 46.2397 125.968C46.3849 125.536 46.6176 125.14 46.9224 124.809C47.5535 124.088 51.0658 122.093 51.5506 123.387C52.0765 124.809 48.6054 128.08 46.0809 127.316Z" fill="#4977FF" stroke="#263238" stroke-miterlimit="10"/>
<path d="M46.0809 127.316L49.5429 124.539" stroke="#263238" stroke-width="0.5" stroke-miterlimit="10"/>
<path d="M44.2561 122.169C44.2153 121.713 44.2689 121.254 44.4132 120.821C44.5576 120.389 44.7893 119.993 45.093 119.661C45.7287 118.941 49.2365 116.945 49.7212 118.239C50.2472 119.661 46.776 122.932 44.2561 122.169Z" fill="#4977FF" stroke="#263238" stroke-miterlimit="10"/>
<path d="M44.2561 122.169L47.7135 119.391" stroke="#263238" stroke-width="0.5" stroke-miterlimit="10"/>
<path d="M44.4208 122.325C43.9792 122.319 43.5441 122.215 43.1449 122.019C42.7457 121.824 42.3916 121.542 42.1066 121.192C41.4801 120.467 39.9297 116.637 41.2331 116.277C42.6463 115.884 45.4177 119.803 44.4208 122.325Z" fill="#4977FF" stroke="#263238" stroke-miterlimit="10"/>
<path d="M44.4207 122.325L42.1204 118.467" stroke="#263238" stroke-width="0.5" stroke-miterlimit="10"/>
<path d="M47.398 216.452H39.6645L38.6949 196.198H48.3675L47.398 216.452Z" fill="#263238" stroke="#263238" stroke-miterlimit="10"/>
<path d="M294.573 137.237L300.601 197.103" stroke="#263238" stroke-width="2" stroke-miterlimit="10"/>
<path d="M299.631 185.647L296.896 182.656" stroke="#263238" stroke-width="2" stroke-miterlimit="10"/>
<path d="M297.724 183.552C297.718 183.094 297.619 182.643 297.431 182.228C297.243 181.814 296.972 181.445 296.636 181.149C295.936 180.499 292.241 178.892 291.893 180.238C291.513 181.703 295.296 184.585 297.724 183.552Z" fill="#4977FF" stroke="#263238" stroke-miterlimit="10"/>
<path d="M297.729 183.552L294.212 181.281" stroke="#263238" stroke-width="0.5" stroke-miterlimit="10"/>
<path d="M300.317 192.458L297.582 189.467" stroke="#263238" stroke-width="2" stroke-miterlimit="10"/>
<path d="M298.415 190.363C298.409 189.905 298.31 189.454 298.122 189.039C297.934 188.625 297.663 188.257 297.326 187.96C296.622 187.311 292.931 185.699 292.584 187.045C292.199 188.514 295.982 191.392 298.415 190.363Z" fill="#4977FF" stroke="#263238" stroke-miterlimit="10"/>
<path d="M298.415 190.363L294.898 188.093" stroke="#263238" stroke-width="0.5" stroke-miterlimit="10"/>
<path d="M297.957 169.033L295.222 166.042" stroke="#263238" stroke-width="2" stroke-miterlimit="10"/>
<path d="M296.055 166.938C296.049 166.48 295.949 166.029 295.762 165.614C295.574 165.2 295.303 164.832 294.966 164.535C294.267 163.885 290.571 162.274 290.224 163.625C289.844 165.089 293.608 167.967 296.055 166.938Z" fill="#4977FF" stroke="#263238" stroke-miterlimit="10"/>
<path d="M296.055 166.938L292.538 164.668" stroke="#263238" stroke-width="0.5" stroke-miterlimit="10"/>
<path d="M298.643 175.84L295.908 172.849" stroke="#263238" stroke-width="2" stroke-miterlimit="10"/>
<path d="M296.741 173.745C296.735 173.287 296.635 172.835 296.447 172.421C296.26 172.006 295.989 171.638 295.652 171.342C294.953 170.692 291.257 169.085 290.91 170.431C290.526 171.896 294.308 174.778 296.741 173.745Z" fill="#4977FF" stroke="#263238" stroke-miterlimit="10"/>
<path d="M296.741 173.745L293.224 171.474" stroke="#263238" stroke-width="0.5" stroke-miterlimit="10"/>
<path d="M296.841 157.97L294.111 154.979" stroke="#263238" stroke-width="2" stroke-miterlimit="10"/>
<path d="M294.939 155.875C294.933 155.417 294.834 154.967 294.647 154.552C294.46 154.138 294.19 153.769 293.855 153.472C293.151 152.827 289.46 151.215 289.108 152.562C288.728 154.05 292.506 156.894 294.939 155.875Z" fill="#4977FF" stroke="#263238" stroke-miterlimit="10"/>
<path d="M294.939 155.875L291.426 153.604" stroke="#263238" stroke-width="0.5" stroke-miterlimit="10"/>
<path d="M295.725 146.864L292.991 143.873" stroke="#263238" stroke-width="2" stroke-miterlimit="10"/>
<path d="M293.823 144.769C293.817 144.311 293.717 143.86 293.53 143.445C293.342 143.031 293.071 142.663 292.734 142.366C292.035 141.717 288.339 140.105 287.992 141.456C287.608 142.92 291.39 145.798 293.823 144.769Z" fill="#4977FF" stroke="#263238" stroke-miterlimit="10"/>
<path d="M293.823 144.769L290.306 142.499" stroke="#263238" stroke-width="0.5" stroke-miterlimit="10"/>
<path d="M299.169 181.618L301.25 178.105" stroke="#263238" stroke-width="2" stroke-miterlimit="10"/>
<path d="M300.614 179.172C300.529 178.723 300.537 178.26 300.638 177.815C300.739 177.369 300.93 176.951 301.2 176.589C301.758 175.802 305.05 173.437 305.659 174.693C306.326 176.025 303.212 179.646 300.614 179.172Z" fill="#4977FF" stroke="#263238" stroke-miterlimit="10"/>
<path d="M300.614 179.162L303.779 176.025" stroke="#263238" stroke-width="0.5" stroke-miterlimit="10"/>
<path d="M297.367 163.701L299.444 160.188" stroke="#263238" stroke-width="2" stroke-miterlimit="10"/>
<path d="M298.812 161.245C298.726 160.796 298.733 160.333 298.834 159.888C298.935 159.442 299.127 159.024 299.398 158.662C299.951 157.875 303.244 155.51 303.857 156.766C304.52 158.107 301.383 161.729 298.812 161.245Z" fill="#4977FF" stroke="#263238" stroke-miterlimit="10"/>
<path d="M298.812 161.245L301.977 158.107" stroke="#263238" stroke-width="0.5" stroke-miterlimit="10"/>
<path d="M296.571 155.827L298.652 152.315" stroke="#263238" stroke-width="2" stroke-miterlimit="10"/>
<path d="M298.017 153.367C297.931 152.918 297.939 152.456 298.04 152.01C298.141 151.565 298.333 151.147 298.602 150.784C299.16 150.002 302.453 147.637 303.061 148.888C303.729 150.23 300.605 153.856 298.017 153.367Z" fill="#4977FF" stroke="#263238" stroke-miterlimit="10"/>
<path d="M298.017 153.367L301.181 150.234" stroke="#263238" stroke-width="0.5" stroke-miterlimit="10"/>
<path d="M295.41 144.286L297.491 140.773" stroke="#263238" stroke-width="2" stroke-miterlimit="10"/>
<path d="M296.855 141.826C296.77 141.377 296.778 140.914 296.878 140.468C296.979 140.023 297.171 139.605 297.44 139.242C297.998 138.455 301.291 136.09 301.899 137.346C302.567 138.688 299.444 142.314 296.855 141.826Z" fill="#4977FF" stroke="#263238" stroke-miterlimit="10"/>
<path d="M296.855 141.826L300.02 138.692" stroke="#263238" stroke-width="0.5" stroke-miterlimit="10"/>
<path d="M294.523 136.901C294.437 136.452 294.445 135.989 294.546 135.544C294.647 135.098 294.839 134.68 295.108 134.317C295.666 133.535 298.959 131.17 299.567 132.421C300.235 133.763 297.111 137.389 294.523 136.901Z" fill="#4977FF" stroke="#263238" stroke-miterlimit="10"/>
<path d="M294.523 136.901L297.687 133.768" stroke="#263238" stroke-width="0.5" stroke-miterlimit="10"/>
<path d="M294.706 137.038C294.265 137.08 293.821 137.024 293.404 136.872C292.987 136.721 292.605 136.478 292.286 136.161C291.591 135.507 289.67 131.867 290.914 131.364C292.295 130.824 295.437 134.422 294.706 137.038Z" fill="#4977FF" stroke="#263238" stroke-miterlimit="10"/>
<path d="M294.706 137.038L292.03 133.445" stroke="#263238" stroke-width="0.5" stroke-miterlimit="10"/>
<path d="M310.474 145.48L304.479 205.356" stroke="#263238" stroke-width="2" stroke-miterlimit="10"/>
<path d="M305.805 193.937L303.724 190.425" stroke="#263238" stroke-width="2" stroke-miterlimit="10"/>
<path d="M304.36 191.496C304.445 191.047 304.437 190.584 304.335 190.138C304.233 189.693 304.04 189.275 303.77 188.913C303.212 188.131 299.919 185.765 299.311 187.017C298.639 188.344 301.771 191.97 304.36 191.496Z" fill="#4977FF" stroke="#263238" stroke-miterlimit="10"/>
<path d="M304.36 191.477L301.369 188.505" stroke="#263238" stroke-width="0.5" stroke-miterlimit="10"/>
<path d="M307.47 177.319L305.389 173.806" stroke="#263238" stroke-width="2" stroke-miterlimit="10"/>
<path d="M306.02 174.863C306.107 174.414 306.099 173.951 305.998 173.506C305.897 173.06 305.705 172.642 305.435 172.28C304.877 171.493 301.584 169.133 300.976 170.384C300.308 171.725 303.436 175.352 306.02 174.863Z" fill="#4977FF" stroke="#263238" stroke-miterlimit="10"/>
<path d="M306.02 174.863L303.034 171.891" stroke="#263238" stroke-width="0.5" stroke-miterlimit="10"/>
<path d="M306.788 184.13L304.707 180.618" stroke="#263238" stroke-width="2" stroke-miterlimit="10"/>
<path d="M305.339 181.67C305.425 181.221 305.418 180.758 305.317 180.312C305.216 179.867 305.024 179.449 304.753 179.087C304.195 178.305 300.902 175.939 300.294 177.191C299.626 178.537 302.755 182.158 305.339 181.67Z" fill="#4977FF" stroke="#263238" stroke-miterlimit="10"/>
<path d="M305.339 181.67L302.352 178.698" stroke="#263238" stroke-width="0.5" stroke-miterlimit="10"/>
<path d="M308.576 166.256L306.496 162.748" stroke="#263238" stroke-width="2" stroke-miterlimit="10"/>
<path d="M307.131 163.8C307.216 163.351 307.208 162.888 307.106 162.442C307.004 161.997 306.812 161.579 306.541 161.217C305.983 160.43 302.691 158.069 302.082 159.321C301.419 160.686 304.543 164.288 307.131 163.8Z" fill="#4977FF" stroke="#263238" stroke-miterlimit="10"/>
<path d="M307.131 163.8L304.14 160.828" stroke="#263238" stroke-width="0.5" stroke-miterlimit="10"/>
<path d="M309.688 155.15L307.607 151.637" stroke="#263238" stroke-width="2" stroke-miterlimit="10"/>
<path d="M308.243 152.69C308.328 152.24 308.319 151.777 308.217 151.332C308.116 150.886 307.923 150.468 307.653 150.106C307.099 149.324 303.807 146.959 303.194 148.21C302.531 149.556 305.654 153.178 308.243 152.69Z" fill="#4977FF" stroke="#263238" stroke-miterlimit="10"/>
<path d="M308.243 152.69L305.252 149.718" stroke="#263238" stroke-width="0.5" stroke-miterlimit="10"/>
<path d="M306.157 189.894L308.887 186.903" stroke="#263238" stroke-width="2" stroke-miterlimit="10"/>
<path d="M308.055 187.799C308.061 187.341 308.161 186.89 308.348 186.475C308.536 186.061 308.807 185.692 309.144 185.396C309.843 184.746 313.534 183.135 313.886 184.481C314.266 185.945 310.493 188.827 308.055 187.799Z" fill="#4977FF" stroke="#263238" stroke-miterlimit="10"/>
<path d="M308.055 187.799L311.778 185.405" stroke="#263238" stroke-width="0.5" stroke-miterlimit="10"/>
<path d="M307.95 171.977L310.68 168.981" stroke="#263238" stroke-width="2" stroke-miterlimit="10"/>
<path d="M309.852 169.877C309.857 169.419 309.955 168.968 310.142 168.553C310.329 168.139 310.6 167.77 310.936 167.474C311.636 166.824 315.327 165.213 315.679 166.564C316.063 168.028 312.285 170.905 309.852 169.877Z" fill="#4977FF" stroke="#263238" stroke-miterlimit="10"/>
<path d="M309.852 169.877L313.571 167.488" stroke="#263238" stroke-width="0.5" stroke-miterlimit="10"/>
<path d="M308.737 164.099L311.467 161.108" stroke="#263238" stroke-width="2" stroke-miterlimit="10"/>
<path d="M310.639 162.004C310.645 161.546 310.745 161.094 310.932 160.68C311.12 160.265 311.391 159.897 311.728 159.601C312.427 158.951 316.118 157.34 316.47 158.686C316.85 160.15 313.072 163.056 310.639 162.004Z" fill="#4977FF" stroke="#263238" stroke-miterlimit="10"/>
<path d="M310.639 162.004L314.357 159.61" stroke="#263238" stroke-width="0.5" stroke-miterlimit="10"/>
<path d="M309.894 152.557L312.624 149.561" stroke="#263238" stroke-width="2" stroke-miterlimit="10"/>
<path d="M311.796 150.462C311.8 150.004 311.899 149.553 312.086 149.138C312.273 148.723 312.544 148.355 312.88 148.059C313.584 147.405 317.275 145.793 317.623 147.144C318.007 148.609 314.229 151.49 311.796 150.462Z" fill="#4977FF" stroke="#263238" stroke-miterlimit="10"/>
<path d="M311.796 150.462L315.514 148.068" stroke="#263238" stroke-width="0.5" stroke-miterlimit="10"/>
<path d="M310.488 145.144C310.494 144.686 310.594 144.234 310.781 143.82C310.969 143.405 311.24 143.037 311.577 142.74C312.276 142.091 315.967 140.479 316.319 141.826C316.703 143.29 312.926 146.172 310.488 145.144Z" fill="#4977FF" stroke="#263238" stroke-miterlimit="10"/>
<path d="M310.488 145.144L314.211 142.75" stroke="#263238" stroke-width="0.5" stroke-miterlimit="10"/>
<path d="M310.644 145.314C310.205 145.261 309.782 145.111 309.403 144.875C309.025 144.639 308.699 144.322 308.448 143.944C307.9 143.153 306.743 139.181 308.069 138.958C309.519 138.721 311.901 142.916 310.644 145.314Z" fill="#4977FF" stroke="#263238" stroke-miterlimit="10"/>
<path d="M310.644 145.314L308.737 141.233" stroke="#263238" stroke-width="0.5" stroke-miterlimit="10"/>
<path d="M303.605 121.098V196.814" stroke="#263238" stroke-width="2" stroke-miterlimit="10"/>
<path d="M303.66 185.429L301.245 182.158" stroke="#263238" stroke-width="2" stroke-miterlimit="10"/>
<path d="M301.982 183.139C302.022 182.683 301.968 182.224 301.823 181.791C301.678 181.359 301.445 180.963 301.14 180.632C300.505 179.911 296.997 177.916 296.512 179.21C295.986 180.632 299.457 183.912 301.982 183.139Z" fill="#4977FF" stroke="#263238" stroke-miterlimit="10"/>
<path d="M301.982 183.139L298.712 180.504" stroke="#263238" stroke-width="0.5" stroke-miterlimit="10"/>
<path d="M303.66 171.199L301.245 167.933" stroke="#263238" stroke-width="2" stroke-miterlimit="10"/>
<path d="M301.982 168.91C302.022 168.455 301.968 167.996 301.823 167.564C301.678 167.132 301.445 166.738 301.14 166.407C300.505 165.682 296.997 163.686 296.512 164.985C295.986 166.407 299.457 169.692 301.982 168.91Z" fill="#4977FF" stroke="#263238" stroke-miterlimit="10"/>
<path d="M301.982 168.91L298.712 166.274" stroke="#263238" stroke-width="0.5" stroke-miterlimit="10"/>
<path d="M303.66 154.496L301.245 151.225" stroke="#263238" stroke-width="2" stroke-miterlimit="10"/>
<path d="M301.982 152.206C302.022 151.75 301.968 151.29 301.823 150.858C301.678 150.426 301.445 150.03 301.14 149.699C300.505 148.978 296.997 146.983 296.512 148.277C295.986 149.699 299.457 152.969 301.982 152.206Z" fill="#4977FF" stroke="#263238" stroke-miterlimit="10"/>
<path d="M301.982 152.206L298.712 149.571" stroke="#263238" stroke-width="0.5" stroke-miterlimit="10"/>
<path d="M303.66 143.376L301.245 140.105" stroke="#263238" stroke-width="2" stroke-miterlimit="10"/>
<path d="M301.982 141.086C302.022 140.63 301.968 140.17 301.823 139.738C301.678 139.305 301.445 138.91 301.14 138.579C300.505 137.858 296.997 135.858 296.512 137.157C295.986 138.579 299.457 141.849 301.982 141.086Z" fill="#4977FF" stroke="#263238" stroke-miterlimit="10"/>
<path d="M301.982 141.086L298.712 138.451" stroke="#263238" stroke-width="0.5" stroke-miterlimit="10"/>
<path d="M303.66 132.203L301.245 128.937" stroke="#263238" stroke-width="2" stroke-miterlimit="10"/>
<path d="M301.982 129.919C302.022 129.463 301.968 129.003 301.823 128.571C301.678 128.138 301.445 127.743 301.14 127.411C300.505 126.691 296.997 124.69 296.512 125.989C295.986 127.411 299.457 130.682 301.982 129.919Z" fill="#4977FF" stroke="#263238" stroke-miterlimit="10"/>
<path d="M301.982 129.919L298.712 127.283" stroke="#263238" stroke-width="0.5" stroke-miterlimit="10"/>
<path d="M303.61 189.775L306.029 186.505" stroke="#263238" stroke-width="2" stroke-miterlimit="10"/>
<path d="M305.293 187.486C305.252 187.03 305.307 186.57 305.452 186.138C305.597 185.705 305.83 185.31 306.134 184.979C306.765 184.258 310.278 182.258 310.758 183.557C311.284 184.979 307.813 188.249 305.293 187.486Z" fill="#4977FF" stroke="#263238" stroke-miterlimit="10"/>
<path d="M305.293 187.486L308.755 184.708" stroke="#263238" stroke-width="0.5" stroke-miterlimit="10"/>
<path d="M303.61 167.147L306.029 163.876" stroke="#263238" stroke-width="2" stroke-miterlimit="10"/>
<path d="M305.293 164.857C305.252 164.401 305.307 163.942 305.452 163.509C305.597 163.077 305.83 162.681 306.134 162.35C306.765 161.629 310.278 159.629 310.758 160.928C311.284 162.35 307.813 165.62 305.293 164.857Z" fill="#4977FF" stroke="#263238" stroke-miterlimit="10"/>
<path d="M305.293 164.857L308.755 162.08" stroke="#263238" stroke-width="0.5" stroke-miterlimit="10"/>
<path d="M303.61 155.974L306.029 152.704" stroke="#263238" stroke-width="2" stroke-miterlimit="10"/>
<path d="M305.293 153.685C305.252 153.229 305.307 152.769 305.452 152.337C305.597 151.904 305.83 151.509 306.134 151.178C306.765 150.457 310.278 148.462 310.758 149.756C311.284 151.178 307.813 154.448 305.293 153.685Z" fill="#4977FF" stroke="#263238" stroke-miterlimit="10"/>
<path d="M305.293 153.685L308.755 150.907" stroke="#263238" stroke-width="0.5" stroke-miterlimit="10"/>
<path d="M303.61 141.214L306.029 137.943" stroke="#263238" stroke-width="2" stroke-miterlimit="10"/>
<path d="M305.293 138.925C305.252 138.469 305.307 138.009 305.452 137.577C305.597 137.144 305.83 136.749 306.134 136.417C306.765 135.697 310.278 133.696 310.758 134.995C311.284 136.417 307.813 139.688 305.293 138.925Z" fill="#4977FF" stroke="#263238" stroke-miterlimit="10"/>
<path d="M305.293 138.925L308.755 136.147" stroke="#263238" stroke-width="0.5" stroke-miterlimit="10"/>
<path d="M303.61 129.606L306.029 126.335" stroke="#263238" stroke-width="2" stroke-miterlimit="10"/>
<path d="M305.293 127.316C305.252 126.86 305.307 126.401 305.452 125.968C305.597 125.536 305.83 125.14 306.134 124.809C306.765 124.088 310.278 122.093 310.758 123.387C311.284 124.809 307.813 128.08 305.293 127.316Z" fill="#4977FF" stroke="#263238" stroke-miterlimit="10"/>
<path d="M305.293 127.316L308.755 124.539" stroke="#263238" stroke-width="0.5" stroke-miterlimit="10"/>
<path d="M303.464 122.169C303.423 121.713 303.477 121.253 303.622 120.821C303.767 120.388 304 119.993 304.305 119.661C304.936 118.941 308.448 116.945 308.933 118.239C309.459 119.661 305.988 122.932 303.464 122.169Z" fill="#4977FF" stroke="#263238" stroke-miterlimit="10"/>
<path d="M303.464 122.169L306.926 119.391" stroke="#263238" stroke-width="0.5" stroke-miterlimit="10"/>
<path d="M303.633 122.325C303.191 122.319 302.755 122.215 302.355 122.02C301.955 121.824 301.6 121.542 301.314 121.192C300.692 120.467 299.142 116.637 300.441 116.277C301.84 115.884 304.63 119.803 303.633 122.325Z" fill="#4977FF" stroke="#263238" stroke-miterlimit="10"/>
<path d="M303.633 122.325L301.332 118.467" stroke="#263238" stroke-width="0.5" stroke-miterlimit="10"/>
<path d="M306.61 216.452H298.872L297.907 196.198H307.575L306.61 216.452Z" fill="#263238" stroke="#263238" stroke-miterlimit="10"/>
<path d="M309.615 56.406C309.616 53.7128 308.991 51.059 307.793 48.6691C306.595 46.2792 304.859 44.2236 302.732 42.6763C300.605 41.129 298.15 40.1355 295.575 39.78C292.999 39.4244 290.378 39.7172 287.935 40.6335C285.491 41.5499 283.297 43.0629 281.537 45.0445C279.777 47.026 278.504 49.4178 277.825 52.0174C277.146 54.617 277.081 57.3479 277.636 59.979C278.191 62.61 279.349 65.0638 281.013 67.1326C283.395 70.0923 284.7 73.8247 284.699 77.6791V79.9733H302.16V77.6791C302.15 73.8309 303.445 70.1014 305.819 67.1421C308.263 64.1377 309.607 60.3361 309.615 56.406Z" fill="white" stroke="#263238" stroke-linecap="round" stroke-linejoin="round"/>
<path d="M302.16 79.978H284.676V84.4621H302.16V79.978Z" fill="#4977FF" stroke="#263238" stroke-linecap="round" stroke-linejoin="round"/>
<path d="M284.676 84.4716H302.16V86.7136C302.16 87.3082 301.932 87.8785 301.527 88.2989C301.121 88.7194 300.571 88.9556 299.997 88.9556H286.835C286.261 88.9556 285.711 88.7194 285.305 88.2989C284.9 87.8785 284.672 87.3082 284.672 86.7136V84.4716H284.676Z" fill="#4977FF" stroke="#263238" stroke-linecap="round" stroke-linejoin="round"/>
<path d="M286.881 88.9508H299.951V90.3728C299.951 91.1786 299.642 91.9514 299.093 92.5212C298.543 93.091 297.797 93.4111 297.02 93.4111H289.812C289.035 93.4111 288.289 93.091 287.739 92.5212C287.189 91.9514 286.881 91.1786 286.881 90.3728V88.9508Z" fill="#263238" stroke="#263238" stroke-linecap="round" stroke-linejoin="round"/>
<path d="M311.888 56.496H319.296" stroke="#263238" stroke-linecap="round" stroke-linejoin="round"/>
<path d="M266.845 56.496H274.35" stroke="#263238" stroke-linecap="round" stroke-linejoin="round"/>
<path d="M293.073 37.0147V29.3169" stroke="#263238" stroke-linecap="round" stroke-linejoin="round"/>
<path d="M306.5 42.5746L311.613 37.2753" stroke="#263238" stroke-linecap="round" stroke-linejoin="round"/>
<path d="M274.528 75.712L279.714 70.3369" stroke="#263238" stroke-linecap="round" stroke-linejoin="round"/>
<path d="M279.495 42.423L274.528 37.2753" stroke="#263238" stroke-linecap="round" stroke-linejoin="round"/>
<path d="M311.613 75.712L306.669 70.5881" stroke="#263238" stroke-linecap="round" stroke-linejoin="round"/>
<path d="M197.82 50.7749L176.412 20.0928L154.999 50.7749H163.808V84.8602H189.016V50.7749H197.82Z" fill="#4977FF" stroke="#263238" stroke-linecap="round" stroke-linejoin="round"/>
<path d="M179.782 103.212C191.815 101.196 199.993 89.4519 198.049 76.9801C196.104 64.5083 184.773 56.0317 172.739 58.0473C160.706 60.0628 152.528 71.8071 154.472 84.279C156.417 96.7508 167.748 105.227 179.782 103.212Z" fill="white" stroke="#263238" stroke-linecap="round" stroke-linejoin="round"/>
<path d="M193.068 89.4128C197.746 79.7964 194.018 68.0699 184.74 63.2208C175.461 58.3716 164.147 62.2362 159.468 71.8525C154.79 81.4688 158.519 93.1954 167.797 98.0445C177.075 102.894 188.389 99.0291 193.068 89.4128Z" fill="white" stroke="#263238" stroke-linecap="round" stroke-linejoin="round"/>
<path d="M182.545 83.552C182.545 78.447 175.566 78.338 175.566 76.205C175.566 75.0863 176.133 74.7498 177.299 74.7498C178.301 74.7498 179.128 75.1953 180.112 76.0959L182.398 73.3468C181.335 72.1003 179.895 71.2647 178.314 70.9768V68.1328H175.296V71.1C172.689 71.683 171.13 73.6075 171.13 76.442C171.13 81.3526 178.108 81.656 178.108 83.9027C178.108 84.9977 177.569 85.4717 176.215 85.4717C175.081 85.4717 173.928 85.0261 172.483 83.9027L170.48 87.1544C171.853 88.3303 173.526 89.0666 175.296 89.2731V92.0887H178.328V89.0741C181.15 88.3631 182.545 86.268 182.545 83.552Z" fill="#4977FF" stroke="#263238" stroke-linecap="round" stroke-linejoin="round"/>
<path d="M67.0452 64.1504C74.8538 62.6825 80.0359 54.9318 78.6196 46.8386C77.2034 38.7454 69.7251 33.3745 61.9165 34.8424C54.1079 36.3102 48.9259 44.061 50.3421 52.1542C51.7584 60.2474 59.2366 65.6183 67.0452 64.1504Z" fill="white" stroke="#263238" stroke-linecap="round" stroke-linejoin="round"/>
<path d="M68.5406 35.223L64.484 49.4998H78.8534C78.852 46.2851 77.8467 43.1573 75.9878 40.5838C74.1289 38.0104 71.5163 36.1298 68.5406 35.223Z" fill="#4977FF" stroke="#263238" stroke-linecap="round" stroke-linejoin="round"/>
<path d="M73.4066 40.1051L79.1095 33.1373H84.003" stroke="#263238" stroke-width="0.5" stroke-linecap="round" stroke-linejoin="round"/>
<path d="M87.4695 33.3459H94.8052" stroke="#263238" stroke-width="0.5" stroke-linecap="round" stroke-linejoin="round"/>
<path d="M87.4695 35.2466H94.8052" stroke="#263238" stroke-width="0.5" stroke-linecap="round" stroke-linejoin="round"/>
<path d="M87.4695 37.1474H94.8052" stroke="#263238" stroke-width="0.5" stroke-linecap="round" stroke-linejoin="round"/>
<path d="M87.4695 39.0482H94.8052" stroke="#263238" stroke-width="0.5" stroke-linecap="round" stroke-linejoin="round"/>
<path d="M50.7365 80.1392H46.5565V93.0651H50.7365V80.1392Z" fill="#263238" stroke="#263238" stroke-width="0.5" stroke-linecap="round" stroke-linejoin="round"/>
<path d="M57.3039 84.7891H53.1238V93.0652H57.3039V84.7891Z" fill="#4977FF" stroke="#263238" stroke-linecap="round" stroke-linejoin="round"/>
<path d="M63.8757 77.3094H59.6957V93.0651H63.8757V77.3094Z" fill="#263238" stroke="#263238" stroke-width="0.5" stroke-linecap="round" stroke-linejoin="round"/>
<path d="M70.4476 80.5706H66.2676V93.0699H70.4476V80.5706Z" fill="#4977FF" stroke="#263238" stroke-linecap="round" stroke-linejoin="round"/>
<path d="M77.0149 77.7123H72.8349V93.0651H77.0149V77.7123Z" fill="#263238" stroke="#263238" stroke-width="0.5" stroke-linecap="round" stroke-linejoin="round"/>
<path d="M83.5868 68.6163H79.4067V93.0699H83.5868V68.6163Z" fill="#4977FF" stroke="#263238" stroke-linecap="round" stroke-linejoin="round"/>
<path d="M88.2836 68.3603H90.7304" stroke="#263238" stroke-width="0.5" stroke-linecap="round" stroke-linejoin="round"/>
<path d="M88.2836 73.2994H90.7304" stroke="#263238" stroke-width="0.5" stroke-linecap="round" stroke-linejoin="round"/>
<path d="M88.2836 78.2432H90.7304" stroke="#263238" stroke-width="0.5" stroke-linecap="round" stroke-linejoin="round"/>
<path d="M88.2836 83.187H90.7304" stroke="#263238" stroke-width="0.5" stroke-linecap="round" stroke-linejoin="round"/>
<path d="M88.2836 88.1308H90.7304" stroke="#263238" stroke-width="0.5" stroke-linecap="round" stroke-linejoin="round"/>
<path d="M88.2836 93.0699H90.7304" stroke="#263238" stroke-width="0.5" stroke-linecap="round" stroke-linejoin="round"/>
<path d="M48.9484 75.3755L55.351 79.3903L62.0144 71.9959L68.5954 72.5694L74.9706 69.9482L82.1874 60.108" stroke="#263238" stroke-linecap="round" stroke-linejoin="round"/>
<path d="M49.7533 75.366C49.7533 75.1999 49.7057 75.0375 49.6166 74.8994C49.5274 74.7613 49.4007 74.6538 49.2525 74.5904C49.1043 74.5271 48.9414 74.5108 48.7842 74.5435C48.6271 74.5763 48.4828 74.6566 48.3698 74.7745C48.2568 74.8923 48.1801 75.0422 48.1493 75.2053C48.1186 75.3683 48.1353 75.5372 48.1973 75.6904C48.2592 75.8436 48.3637 75.9743 48.4974 76.0659C48.6311 76.1575 48.7881 76.2059 48.9484 76.205C49.0545 76.205 49.1595 76.1833 49.2575 76.141C49.3554 76.0988 49.4444 76.0369 49.5192 75.959C49.594 75.881 49.6532 75.7885 49.6933 75.6867C49.7335 75.5849 49.7539 75.476 49.7533 75.366Z" fill="#263238"/>
<path d="M56.1605 79.3903C56.1605 79.2243 56.1131 79.0621 56.0241 78.9241C55.9352 78.7862 55.8087 78.6786 55.6608 78.6151C55.5129 78.5516 55.3502 78.535 55.1931 78.5674C55.0361 78.5998 54.8919 78.6797 54.7787 78.797C54.6654 78.9143 54.5884 79.0638 54.5571 79.2266C54.5259 79.3893 54.5419 79.558 54.6032 79.7113C54.6645 79.8646 54.7682 79.9956 54.9013 80.0878C55.0344 80.18 55.1909 80.2292 55.351 80.2292C55.4575 80.2299 55.5631 80.2086 55.6615 80.1666C55.76 80.1247 55.8495 80.0629 55.9248 79.9849C56.0001 79.9069 56.0597 79.8141 56.1001 79.7121C56.1406 79.61 56.1611 79.5006 56.1605 79.3903Z" fill="#263238"/>
<path d="M62.8193 71.9959C62.8193 71.8298 62.7717 71.6674 62.6825 71.5293C62.5934 71.3912 62.4667 71.2837 62.3185 71.2203C62.1703 71.157 62.0073 71.1406 61.8502 71.1734C61.693 71.2062 61.5488 71.2865 61.4358 71.4043C61.3228 71.5221 61.246 71.6721 61.2153 71.8351C61.1846 71.9982 61.2013 72.167 61.2633 72.3203C61.3252 72.4735 61.4297 72.6042 61.5634 72.6958C61.6971 72.7874 61.8541 72.8358 62.0144 72.8349C62.1205 72.8349 62.2255 72.8131 62.3235 72.7709C62.4214 72.7287 62.5103 72.6668 62.5851 72.5889C62.6599 72.5109 62.7191 72.4184 62.7593 72.3166C62.7995 72.2148 62.8199 72.1058 62.8193 71.9959Z" fill="#263238"/>
<path d="M69.4003 72.5694C69.4003 72.4033 69.3527 72.2409 69.2636 72.1028C69.1744 71.9648 69.0477 71.8572 68.8996 71.7939C68.7514 71.7305 68.5884 71.7142 68.4312 71.7469C68.2741 71.7797 68.1299 71.8601 68.0168 71.9779C67.9038 72.0957 67.8271 72.2456 67.7964 72.4087C67.7657 72.5717 67.7823 72.7406 67.8443 72.8938C67.9063 73.047 68.0107 73.1777 68.1445 73.2693C68.2782 73.3609 68.4351 73.4094 68.5954 73.4084C68.7015 73.4084 68.8066 73.3867 68.9045 73.3445C69.0025 73.3022 69.0914 73.2404 69.1662 73.1624C69.241 73.0844 69.3002 72.9919 69.3404 72.8901C69.3806 72.7884 69.4009 72.6794 69.4003 72.5694Z" fill="#263238"/>
<path d="M75.7801 69.8155C75.7801 69.6495 75.7326 69.4873 75.6437 69.3494C75.5547 69.2114 75.4283 69.1039 75.2804 69.0404C75.1325 68.9769 74.9697 68.9603 74.8127 68.9926C74.6557 69.025 74.5114 69.1049 74.3982 69.2222C74.285 69.3396 74.2079 69.4891 74.1767 69.6518C74.1455 69.8145 74.1615 69.9832 74.2228 70.1365C74.284 70.2898 74.3878 70.4209 74.5209 70.5131C74.654 70.6053 74.8105 70.6545 74.9706 70.6545C75.1853 70.6545 75.3912 70.5661 75.543 70.4087C75.6948 70.2514 75.7801 70.038 75.7801 69.8155Z" fill="#263238"/>
<path d="M82.9923 60.1079C82.9922 59.9418 82.9447 59.7794 82.8555 59.6413C82.7664 59.5033 82.6397 59.3957 82.4915 59.3324C82.3433 59.269 82.1803 59.2527 82.0232 59.2855C81.866 59.3182 81.7218 59.3986 81.6088 59.5164C81.4957 59.6342 81.419 59.7841 81.3883 59.9472C81.3576 60.1103 81.3743 60.2791 81.4362 60.4323C81.4982 60.5855 81.6027 60.7162 81.7364 60.8078C81.8701 60.8995 82.0271 60.9479 82.1873 60.9469C82.4012 60.9457 82.606 60.8567 82.7568 60.6995C82.9076 60.5423 82.9923 60.3296 82.9923 60.1079Z" fill="#263238"/>
<path d="M242.382 195.961H244.989V169.929H242.382V195.961Z" fill="#263238" stroke="#263238" stroke-linecap="round" stroke-linejoin="round"/>
<path d="M255.364 170.843L259.961 171.4L262.879 145.544L258.282 144.987L255.364 170.843Z" fill="#263238" stroke="#263238" stroke-linecap="round" stroke-linejoin="round"/>
<path d="M240.374 197.028V192.638H246.992V197.066L273.462 208.077V213.272H271.656V209.323L243.589 202.701L216.264 209.323V213.272H214.508V208.077L240.374 197.028Z" fill="#8C8C8C" stroke="#263238" stroke-linecap="round" stroke-linejoin="round"/>
<path d="M237.168 178.243H250.202V169.929H237.168V178.243Z" fill="#263238" stroke="#263238" stroke-linecap="round" stroke-linejoin="round"/>
<path d="M273.485 213.48C273.485 212.904 273.65 212.341 273.959 211.863C274.268 211.384 274.706 211.011 275.22 210.791C275.733 210.571 276.298 210.513 276.843 210.626C277.388 210.739 277.888 211.016 278.281 211.424C278.673 211.831 278.94 212.35 279.048 212.915C279.156 213.48 279.1 214.065 278.886 214.597C278.673 215.129 278.312 215.583 277.85 215.902C277.388 216.222 276.844 216.391 276.289 216.391C275.92 216.391 275.555 216.315 275.215 216.169C274.874 216.023 274.565 215.808 274.305 215.538C274.044 215.268 273.838 214.947 273.697 214.594C273.557 214.24 273.485 213.862 273.485 213.48Z" fill="#263238" stroke="#263238" stroke-linecap="round" stroke-linejoin="round"/>
<path d="M275.063 213.48C275.063 213.234 275.134 212.993 275.266 212.788C275.398 212.583 275.586 212.423 275.806 212.328C276.025 212.234 276.267 212.209 276.501 212.257C276.734 212.306 276.948 212.424 277.116 212.599C277.285 212.773 277.399 212.995 277.446 213.237C277.492 213.479 277.468 213.729 277.377 213.957C277.286 214.185 277.132 214.38 276.934 214.517C276.736 214.654 276.504 214.727 276.266 214.727C275.947 214.727 275.641 214.595 275.415 214.362C275.19 214.128 275.063 213.811 275.063 213.48Z" fill="white" stroke="#263238" stroke-linecap="round" stroke-linejoin="round"/>
<path d="M208.69 213.48C208.69 212.905 208.855 212.342 209.164 211.863C209.472 211.385 209.911 211.012 210.424 210.791C210.937 210.571 211.501 210.513 212.046 210.626C212.591 210.738 213.091 211.015 213.484 211.422C213.877 211.829 214.144 212.348 214.252 212.912C214.361 213.477 214.305 214.062 214.093 214.594C213.88 215.126 213.52 215.58 213.058 215.9C212.597 216.22 212.054 216.391 211.498 216.391C210.754 216.391 210.039 216.084 209.513 215.538C208.986 214.992 208.69 214.252 208.69 213.48Z" fill="#263238" stroke="#263238" stroke-linecap="round" stroke-linejoin="round"/>
<path d="M211.498 214.727C212.163 214.727 212.701 214.169 212.701 213.48C212.701 212.792 212.163 212.234 211.498 212.234C210.834 212.234 210.296 212.792 210.296 213.48C210.296 214.169 210.834 214.727 211.498 214.727Z" fill="white" stroke="#263238" stroke-linecap="round" stroke-linejoin="round"/>
<path d="M242.478 213.423H244.682L245.789 197.833H241.376L242.478 213.423Z" fill="#8C8C8C" stroke="#263238" stroke-linecap="round" stroke-linejoin="round"/>
<path d="M242.583 216.537H244.788V210.096H242.583V216.537Z" fill="#263238" stroke="#263238" stroke-linecap="round" stroke-linejoin="round"/>
<path d="M261.046 157.965C262.332 158.094 263.63 157.959 264.866 157.568C266.102 157.176 267.251 156.537 268.248 155.685C269.245 154.833 270.071 153.786 270.678 152.604C271.284 151.421 271.66 150.126 271.784 148.793L274.857 115.656C275.107 112.964 274.315 110.279 272.656 108.192C270.996 106.105 268.605 104.787 266.008 104.526C263.41 104.269 260.82 105.091 258.806 106.812C256.793 108.532 255.521 111.011 255.27 113.703L252.192 146.883C251.954 149.568 252.752 152.242 254.411 154.319C256.07 156.396 258.456 157.707 261.046 157.965Z" fill="#8C8C8C" stroke="#263238" stroke-linecap="round" stroke-linejoin="round"/>
<path d="M258.713 157.733C261.311 157.992 263.901 157.171 265.915 155.451C267.928 153.731 269.201 151.253 269.452 148.561L272.53 115.381C272.772 112.693 271.976 110.015 270.316 107.934C268.656 105.853 266.268 104.539 263.676 104.28C262.389 104.152 261.091 104.288 259.856 104.68C258.62 105.071 257.471 105.712 256.475 106.564C255.478 107.416 254.653 108.463 254.047 109.646C253.441 110.829 253.065 112.124 252.942 113.457L249.864 146.608C249.614 149.3 250.406 151.984 252.066 154.07C253.726 156.156 256.117 157.474 258.713 157.733Z" fill="#8C8C8C" stroke="#263238" stroke-linecap="round" stroke-linejoin="round"/>
<path d="M215.903 172.536L261.8 173.787C262.055 173.796 262.309 173.752 262.547 173.658C262.785 173.565 263.004 173.424 263.189 173.243C263.375 173.062 263.524 172.845 263.629 172.604C263.734 172.363 263.791 172.103 263.799 171.839L264.032 164.227C264.04 163.963 263.998 163.7 263.908 163.453C263.817 163.206 263.681 162.98 263.507 162.787C263.332 162.595 263.123 162.44 262.89 162.332C262.658 162.223 262.407 162.163 262.153 162.155L216.259 160.904C216.005 160.895 215.751 160.939 215.513 161.031C215.275 161.124 215.056 161.265 214.871 161.446C214.685 161.626 214.536 161.843 214.431 162.084C214.326 162.324 214.268 162.584 214.261 162.847L214.032 170.465C214.016 170.996 214.204 171.513 214.554 171.901C214.905 172.289 215.39 172.517 215.903 172.536Z" fill="#8C8C8C" stroke="#263238" stroke-linecap="round" stroke-linejoin="round"/>
<path d="M235.093 172.904L261.806 173.779C262.877 173.814 263.772 172.943 263.806 171.834L264.038 164.22C264.072 163.111 263.231 162.183 262.161 162.148L235.448 161.273C234.377 161.238 233.482 162.109 233.448 163.219L233.216 170.832C233.182 171.941 234.023 172.869 235.093 172.904Z" fill="#8C8C8C" stroke="#263238" stroke-linecap="round" stroke-linejoin="round"/>
<path d="M212.843 205.109L212.619 206.863C212.619 206.863 210.588 211.072 209.797 211.774C209.006 212.475 204.044 214.694 203.143 215.044C202.242 215.395 203.82 216.466 205.965 216.566C208.11 216.665 212.056 216.684 213.41 216.334C214.764 215.983 217.357 213.992 217.924 213.878L218.381 215.395C218.381 215.395 220.865 214.447 221.766 214.229C222.666 214.011 224.135 212.807 224.135 212.807C223.622 211.174 223.02 209.573 222.333 208.01C221.916 207.226 221.382 206.516 220.75 205.906L219.063 203.82L212.843 205.109Z" fill="#263238" stroke="#263238" stroke-linecap="round" stroke-linejoin="round"/>
<path d="M226.494 138.313L222.772 140.65L214.649 143.105C214.649 143.105 188.929 148.016 187.461 149.784C185.993 151.552 186.546 153.059 187.799 155.282C189.052 157.506 210.831 206.745 210.831 206.745L219.858 204.872L204.739 157.724C204.739 157.724 233.171 163.686 238.124 162.748C243.077 161.809 249.407 156.32 250.532 152.111C251.657 147.902 246.471 141.209 246.471 141.209L226.494 138.313Z" fill="#4977FF" stroke="#263238" stroke-linecap="round" stroke-linejoin="round"/>
<path d="M198.341 153.149C198.341 153.149 204.026 155.993 205.045 159.193" stroke="#263238" stroke-linecap="round" stroke-linejoin="round"/>
<path d="M255.937 99.2604L243.754 98.0896L225.932 139.949L237.662 142.053L255.937 99.2604Z" fill="white" stroke="#263238" stroke-linecap="round" stroke-linejoin="round"/>
<path d="M243.978 102C243.978 102 226.156 139.356 225.923 139.949C225.689 140.541 220.622 142.053 219.493 142.285C218.363 142.518 214.64 143.105 214.64 143.105L220.961 138.664L225.465 126.62L219.977 123.714C219.977 123.714 230.13 107.93 232.385 102.55C234.639 97.17 235.527 95.748 237.777 95.6343C240.027 95.5205 246.466 95.985 246.466 95.985L243.978 102Z" fill="#4977FF" stroke="#263238" stroke-linecap="round" stroke-linejoin="round"/>
<path d="M241.499 109.897L241.724 112.589C241.724 112.589 229.879 134.569 229.769 135.038C229.659 135.507 230.684 138.778 230.684 138.778L234.859 135.621L242.753 113.058L244.897 111.769V107.593L241.499 109.897Z" fill="#263238" stroke="#263238" stroke-linecap="round" stroke-linejoin="round"/>
<path d="M246.21 69.4932C246.21 69.4932 242.021 80.0065 241.092 83.1918C240.164 86.377 239.51 91.5816 239.72 92.1598C239.931 92.7381 241.092 94.7621 243.256 94.8617C245.419 94.9612 247.257 94.9565 247.257 94.9565L244.001 102C244.001 102 244.372 107.498 244.916 107.593C245.46 107.688 253.665 101.133 253.852 100.839C254.04 100.545 259.249 88.9888 259.249 88.9888C259.249 88.9888 263.904 86.5761 264.183 84.4526C264.274 83.8586 264.21 83.2501 263.997 82.6906C263.784 82.1312 263.429 81.6413 262.971 81.2721V78.6651L265.02 72.2992C265.02 72.2992 259.903 68.8296 254.222 67.3791C248.542 65.9287 247.335 66.9051 247.335 66.9051L246.21 69.4932Z" fill="white" stroke="#263238" stroke-linecap="round" stroke-linejoin="round"/>
<path d="M255.608 63.6108C255.608 63.6108 247.234 61.293 243.512 64.6726C239.789 68.0522 249.466 73.47 252.631 73.944C255.796 74.418 259.706 73.7497 258.773 74.6218C257.84 75.494 255.796 76.8402 256.82 77.7076C257.463 78.2428 258.186 78.6654 258.96 78.9589C258.96 78.9589 254.588 88.9129 253.843 90.0505C253.097 91.1881 251.703 91.1123 250.866 90.8232C250.029 90.534 246.027 87.9318 244.724 87.4483C243.42 86.9648 241.001 85.5191 240.443 87.0643C239.885 88.6096 238.486 95.165 240.534 96.6107C242.583 98.0564 252.539 94.3924 254.03 93.3306C255.521 92.2689 255.983 90.3397 256.262 89.9557C256.541 89.5718 260.543 82.7225 260.913 82.239C261.284 81.7555 262.962 81.291 262.962 81.291C262.962 81.291 266.314 74.3422 266.593 71.6451C266.872 68.9481 258.123 63.516 255.608 63.6108Z" fill="#263238" stroke="#263238" stroke-linecap="round" stroke-linejoin="round"/>
<path d="M246.864 77.0156L246.676 81.2816C246.676 81.2816 242.304 86.3913 242.304 86.9696C242.304 87.5478 247.513 86.8748 247.513 86.8748" stroke="#263238" stroke-linecap="round" stroke-linejoin="round"/>
<path d="M246.21 76.0533C246.05 75.73 245.786 75.4754 245.463 75.3341C245.14 75.1928 244.78 75.1739 244.445 75.2807" stroke="#263238" stroke-linecap="round" stroke-linejoin="round"/>
<path d="M250.12 78.4612C250.12 78.4612 252.818 78.1721 253.655 80.2956" stroke="#263238" stroke-linecap="round" stroke-linejoin="round"/>
<path d="M242.844 89.1689C242.844 89.1689 245.263 90.7141 246.846 90.7141" stroke="white" stroke-linecap="round" stroke-linejoin="round"/>
<path d="M251.039 82.6419C250.783 83.1681 250.317 83.4525 249.997 83.2866C249.677 83.1207 249.622 82.5566 249.878 82.0352C250.134 81.5138 250.6 81.2247 250.92 81.3906C251.241 81.5565 251.295 82.1205 251.039 82.6419Z" fill="#263238"/>
<path d="M245.213 80.2956C244.961 80.817 244.49 81.1062 244.17 80.9355C243.85 80.7649 243.795 80.2103 244.051 79.6842C244.307 79.158 244.774 78.8736 245.094 79.0443C245.414 79.2149 245.469 79.7695 245.213 80.2956Z" fill="#263238"/>
<path d="M204.835 201.199L204.044 206.109L202.352 206.583C202.352 206.583 200.769 208.56 200.435 209.034C200.102 209.508 195.922 212.655 194.797 213.243C193.672 213.831 190.845 214.058 190.96 214.878C191.074 215.699 197.051 216.4 200.888 216.514C204.725 216.628 206.866 215.348 206.866 215.348L207.204 216.163L211.151 215.812C211.151 215.812 210.927 211.954 211.041 210.319C211.077 208.989 211 207.658 210.812 206.342L210.588 202.953L204.835 201.199Z" fill="#263238" stroke="#263238" stroke-linecap="round" stroke-linejoin="round"/>
<path d="M236.537 143.807C236.537 143.807 204.497 147.897 203.82 148.718C203.143 149.538 203.705 173.74 203.705 173.74L199.983 202.066L211.489 205.716C211.489 205.716 215.102 181.831 216.342 175.38C217.189 170.583 217.792 165.743 218.148 160.88C218.148 160.88 235.861 165.089 241.929 161.582C247.998 158.074 246.777 153.747 246.777 153.747" fill="#4977FF"/>
<path d="M236.537 143.807C236.537 143.807 204.497 147.897 203.82 148.718C203.143 149.538 203.705 173.74 203.705 173.74L199.983 202.066L211.489 205.716C211.489 205.716 215.102 181.831 216.342 175.38C217.189 170.583 217.792 165.743 218.148 160.88C218.148 160.88 235.861 165.089 241.929 161.582C247.998 158.074 246.777 153.747 246.777 153.747" stroke="#263238" stroke-linecap="round" stroke-linejoin="round"/>
<path d="M204.318 172.792C204.318 172.792 205.777 165.995 206.065 162.364" stroke="#263238" stroke-linecap="round" stroke-linejoin="round"/>
<path d="M215.765 156.97C215.418 156.488 215 156.066 214.526 155.719" stroke="#263238" stroke-linecap="round" stroke-linejoin="round"/>
<path d="M218.148 160.88C218.148 160.88 217.499 159.563 216.648 158.231" stroke="#263238" stroke-linecap="round" stroke-linejoin="round"/>
<path d="M255.489 97.0373C255.489 97.0373 242.739 121.344 240.031 127.553C237.324 133.763 233.697 142.404 233.697 143.338C233.697 144.271 231.328 168.246 232.12 168.711C232.911 169.175 244.751 165.203 250.28 162.985C255.809 160.767 256.034 159.127 256.486 157.837C256.939 156.548 256.825 139.949 256.825 139.949C256.825 139.949 268.331 106.039 268.217 104.522C268.103 103.005 255.489 97.0373 255.489 97.0373Z" fill="#4977FF" stroke="#263238" stroke-linecap="round" stroke-linejoin="round"/>
<path d="M245.798 121.628C243.708 123.752 241.952 125.335 241.952 125.335" stroke="#263238" stroke-linecap="round" stroke-linejoin="round"/>
<path d="M259.55 99.7249C259.55 99.7249 254.25 110.485 251.538 114.812C250.2 116.796 248.691 118.649 247.029 120.349" stroke="#263238" stroke-linecap="round" stroke-linejoin="round"/>
<path d="M242.592 97.4686C242.592 97.4686 237.104 106.977 235.522 112.589C233.94 118.201 233.601 121.121 233.601 121.121" stroke="#263238" stroke-linecap="round" stroke-linejoin="round"/>
<path d="M239.693 111.068L244.907 107.593L245.108 115.746" stroke="#263238" stroke-linecap="round" stroke-linejoin="round"/>
<path d="M250.815 147.599L252.558 147.315" stroke="#263238" stroke-linecap="round" stroke-linejoin="round"/>
<path d="M251.991 145.21L239.693 146.731V149.419L248.474 147.983" stroke="#263238" stroke-linecap="round" stroke-linejoin="round"/>
<path d="M234.845 101.128C234.845 101.128 236.876 96.6866 237.891 96.5681C238.906 96.4496 241.161 96.5681 241.161 97.5161C241.161 98.4641 239.922 98.5684 239.922 98.5684H238.229L237.438 100.673L234.845 101.128Z" fill="white" stroke="#263238" stroke-linecap="round" stroke-linejoin="round"/>
<path d="M232.024 109.546L232.815 104.986C232.815 104.986 233.153 101.014 233.729 100.777C234.306 100.54 239.483 100.663 239.483 100.663C239.483 100.663 239.597 105.337 239.144 106.508C238.691 107.679 236.661 108.143 236.661 108.143C236.474 108.872 236.21 109.578 235.874 110.248C235.536 110.722 234.292 111.3 234.292 111.3L233.953 112.248L231.022 110.257L232.024 109.546Z" fill="white" stroke="#263238" stroke-linecap="round" stroke-linejoin="round"/>
<path d="M236.647 108.148L236.085 105.925L238.229 105.806" fill="white"/>
<path d="M236.647 108.148L236.085 105.925L238.229 105.806" stroke="#263238" stroke-linecap="round" stroke-linejoin="round"/>
<path d="M230.894 109.2L235.522 112.589L233.716 114.575L229.769 110.835L230.894 109.2Z" fill="white" stroke="#263238" stroke-linecap="round" stroke-linejoin="round"/>
<path d="M229.769 110.835L235.069 114.926L224.917 130.947C223.715 131.212 222.467 131.13 221.308 130.71C219.387 130.009 217.585 126.037 217.585 125.567C217.585 125.098 229.769 110.835 229.769 110.835Z" fill="#4977FF" stroke="#263238" stroke-linecap="round" stroke-linejoin="round"/>
<path d="M225.708 129.426C225.708 129.426 224.016 126.15 223.901 125.217C223.787 124.283 223.677 122.411 223.11 121.709C222.543 121.007 221.871 120.538 221.647 119.486C221.422 118.434 220.403 118.903 220.275 119.96C220.147 121.017 221.061 122.064 221.061 122.064C221.061 122.064 218.244 121.116 217.791 121.363C217.339 121.609 216.419 121.946 216.662 122.785C216.812 123.3 217.003 123.801 217.233 124.283C217.233 124.283 215.431 126.738 215.431 127.904C215.431 129.07 216.671 130.947 217.576 131.649C218.482 132.35 221.637 133.071 221.637 133.071L225.708 129.426Z" fill="white" stroke="#263238" stroke-linecap="round" stroke-linejoin="round"/>
<path d="M258.256 105.365L248.044 127.321L223.11 128.743C222.481 128.901 221.907 129.235 221.449 129.709C220.992 130.184 220.669 130.779 220.517 131.431C220.255 132.5 220.141 133.603 220.179 134.706C220.179 134.706 236.761 136.811 241.952 137.161C247.143 137.512 253.459 138.214 254.25 137.394C255.041 136.574 264.403 116.467 264.403 116.467" fill="#4977FF"/>
<path d="M258.256 105.365L248.044 127.321L223.11 128.743C222.481 128.901 221.907 129.235 221.449 129.709C220.992 130.184 220.669 130.779 220.517 131.431C220.255 132.5 220.141 133.603 220.179 134.706C220.179 134.706 236.761 136.811 241.952 137.161C247.143 137.512 253.459 138.214 254.25 137.394C255.041 136.574 264.403 116.467 264.403 116.467" stroke="#263238" stroke-linecap="round" stroke-linejoin="round"/>
<path d="M109.015 169.934H106.408V195.966H109.015V169.934Z" fill="#263238" stroke="#263238" stroke-linecap="round" stroke-linejoin="round"/>
<path d="M93.1305 144.992L88.5336 145.549L91.4509 171.405L96.0478 170.848L93.1305 144.992Z" fill="#263238" stroke="#263238" stroke-linecap="round" stroke-linejoin="round"/>
<path d="M111.022 197.028V192.638H104.405V197.066L77.9341 208.077V213.272H79.7406V209.323L107.807 202.701L135.133 209.323V213.272H136.889V208.077L111.022 197.028Z" fill="#8C8C8C" stroke="#263238" stroke-linecap="round" stroke-linejoin="round"/>
<path d="M114.228 169.934H101.194V178.248H114.228V169.934Z" fill="#263238" stroke="#263238" stroke-linecap="round" stroke-linejoin="round"/>
<path d="M77.9342 213.48C77.9342 212.905 77.7695 212.342 77.4609 211.863C77.1524 211.385 76.7138 211.012 76.2007 210.791C75.6876 210.571 75.123 210.513 74.5783 210.626C74.0336 210.738 73.5333 211.015 73.1406 211.422C72.7479 211.829 72.4804 212.348 72.3721 212.912C72.2637 213.477 72.3193 214.062 72.5319 214.594C72.7444 215.126 73.1043 215.58 73.5661 215.9C74.0279 216.22 74.5708 216.391 75.1261 216.391C75.8709 216.391 76.5851 216.084 77.1117 215.538C77.6383 214.992 77.9342 214.252 77.9342 213.48Z" fill="#263238" stroke="#263238" stroke-linecap="round" stroke-linejoin="round"/>
<path d="M76.3289 213.48C76.3289 213.234 76.2584 212.993 76.1262 212.788C75.994 212.583 75.8062 212.423 75.5864 212.328C75.3666 212.234 75.1248 212.209 74.8915 212.257C74.6582 212.306 74.4438 212.424 74.2756 212.599C74.1074 212.773 73.9929 212.995 73.9465 213.237C73.9 213.479 73.9239 213.729 74.0149 213.957C74.1059 214.185 74.2601 214.38 74.4579 214.517C74.6557 214.654 74.8882 214.727 75.1261 214.727C75.4451 214.727 75.7511 214.595 75.9766 214.362C76.2022 214.128 76.3289 213.811 76.3289 213.48Z" fill="white" stroke="#263238" stroke-linecap="round" stroke-linejoin="round"/>
<path d="M142.688 213.48C142.688 212.905 142.523 212.342 142.215 211.863C141.906 211.385 141.468 211.012 140.955 210.791C140.441 210.571 139.877 210.513 139.332 210.626C138.787 210.738 138.287 211.015 137.894 211.422C137.502 211.829 137.234 212.348 137.126 212.912C137.018 213.477 137.073 214.062 137.286 214.594C137.498 215.126 137.858 215.58 138.32 215.9C138.782 216.22 139.325 216.391 139.88 216.391C140.625 216.391 141.339 216.084 141.866 215.538C142.392 214.992 142.688 214.252 142.688 213.48Z" fill="#263238" stroke="#263238" stroke-linecap="round" stroke-linejoin="round"/>
<path d="M139.898 214.727C140.563 214.727 141.101 214.169 141.101 213.48C141.101 212.792 140.563 212.234 139.898 212.234C139.234 212.234 138.695 212.792 138.695 213.48C138.695 214.169 139.234 214.727 139.898 214.727Z" fill="white" stroke="#263238" stroke-linecap="round" stroke-linejoin="round"/>
<path d="M108.914 213.423H106.71L105.607 197.833H110.021L108.914 213.423Z" fill="#8C8C8C" stroke="#263238" stroke-linecap="round" stroke-linejoin="round"/>
<path d="M108.813 210.096H106.609V216.537H108.813V210.096Z" fill="#263238" stroke="#263238" stroke-linecap="round" stroke-linejoin="round"/>
<path d="M90.3508 157.965C89.0646 158.094 87.7665 157.959 86.5307 157.568C85.2949 157.176 84.1456 156.537 83.1484 155.685C82.1512 154.833 81.3257 153.786 80.719 152.604C80.1123 151.421 79.7364 150.126 79.6126 148.793L76.5347 115.613C76.4105 114.28 76.5408 112.935 76.9183 111.654C77.2958 110.373 77.9131 109.182 78.7349 108.148C79.5566 107.115 80.5668 106.259 81.7077 105.631C82.8487 105.002 84.0979 104.612 85.3841 104.484C87.9819 104.226 90.5721 105.048 92.5856 106.769C94.5991 108.49 95.8712 110.968 96.1223 113.66L99.2002 146.84C99.4499 149.532 98.6579 152.216 96.9983 154.302C95.3388 156.389 92.9476 157.706 90.3508 157.965Z" fill="#8C8C8C" stroke="#263238" stroke-linecap="round" stroke-linejoin="round"/>
<path d="M92.6831 157.733C90.0858 157.992 87.4956 157.171 85.482 155.451C83.4683 153.731 82.1961 151.253 81.945 148.561L78.8671 115.381C78.625 112.694 79.4205 110.017 81.0791 107.936C82.7378 105.855 85.1245 104.541 87.7165 104.28C90.3146 104.021 92.9054 104.843 94.9192 106.564C96.9329 108.284 98.2047 110.764 98.4547 113.457L101.528 146.604C101.778 149.295 100.987 151.979 99.328 154.066C97.6695 156.152 95.2795 157.472 92.6831 157.733Z" fill="#8C8C8C" stroke="#263238" stroke-linecap="round" stroke-linejoin="round"/>
<path d="M137.081 172.536L89.5962 173.787C89.3415 173.796 89.0878 173.752 88.8495 173.658C88.6112 173.565 88.393 173.424 88.2074 173.243C88.0218 173.062 87.8724 172.845 87.7678 172.604C87.6631 172.363 87.6053 172.103 87.5976 171.839L87.3507 164.227C87.3346 163.695 87.5231 163.177 87.8747 162.789C88.2263 162.401 88.7122 162.173 89.2257 162.155L136.743 160.904C136.997 160.895 137.251 160.939 137.489 161.031C137.727 161.124 137.946 161.265 138.131 161.446C138.317 161.626 138.466 161.843 138.571 162.084C138.676 162.324 138.734 162.584 138.741 162.847L138.974 170.465C138.982 170.73 138.94 170.994 138.849 171.242C138.757 171.49 138.62 171.716 138.444 171.909C138.268 172.102 138.057 172.256 137.823 172.364C137.589 172.471 137.337 172.53 137.081 172.536Z" fill="#8C8C8C" stroke="#263238" stroke-linecap="round" stroke-linejoin="round"/>
<path d="M115.961 161.278L89.2479 162.153C88.1775 162.188 87.3372 163.116 87.371 164.225L87.6031 171.838C87.637 172.948 88.5321 173.819 89.6025 173.784L116.316 172.909C117.386 172.874 118.226 171.946 118.193 170.837L117.96 163.223C117.927 162.114 117.031 161.243 115.961 161.278Z" fill="#8C8C8C" stroke="#263238" stroke-linecap="round" stroke-linejoin="round"/>
<path d="M143.145 157.031C143.145 157.031 143.552 165.165 144.632 172.451C145.711 179.736 147.499 201.839 147.499 201.839C148.062 204.058 148.827 206.217 149.786 208.285C150.426 209.658 151.244 210.934 152.219 212.077C152.219 212.077 155.736 215.722 155.599 216.281C155.461 216.841 153.257 216.784 151.094 216.362C148.931 215.94 148.487 215.414 147.27 214.566C146.054 213.717 143.287 212.632 142.071 212.196C140.854 211.76 140.452 210.66 140.859 209.399C141.266 208.138 142.619 205.195 142.619 203.374C142.619 201.554 141.536 192.918 138.572 187.168C135.608 181.419 133.839 171.47 133.839 171.47L143.145 157.031Z" fill="white" stroke="#263238" stroke-linecap="round" stroke-linejoin="round"/>
<path d="M143.863 209.821C143.004 209.129 142.199 208.399 141.513 207.712C141.257 208.389 141.019 208.987 140.886 209.399C140.479 210.66 140.886 211.769 142.098 212.196C143.31 212.622 146.081 213.712 147.298 214.566C148.514 215.419 148.958 215.94 151.121 216.362C153.284 216.784 155.493 216.836 155.626 216.281C155.759 215.727 152.246 212.077 152.246 212.077L150.49 212.921C150.49 212.921 146.296 211.783 143.863 209.821Z" fill="#4977FF" stroke="#263238" stroke-linecap="round" stroke-linejoin="round"/>
<path d="M91.2654 140.328C91.2654 140.328 90.0489 145.267 90.7121 148.386C91.3752 151.505 95.9211 158.719 103.787 160.444C111.653 162.17 131.424 161.606 131.424 161.606C131.424 161.606 126.658 169.109 124.884 178.143C123.713 184.125 120.123 192.496 119.57 193.762C119.016 195.027 112.477 197.321 112.71 198.355C112.943 199.388 113.707 205.816 115.367 208.46C117.027 211.105 119.798 212.252 120.905 212.594C122.012 212.935 122.236 212.935 122.236 211.788C122.236 210.641 121.459 209.034 121.459 207.996C121.459 206.958 121.349 199.938 121.792 199.037C122.236 198.137 136.743 174.432 138.956 170.545C141.17 166.658 144.609 159.06 145.606 157.799C146.603 156.538 147.819 154.813 146.822 152.633C145.825 150.452 122.936 143.153 122.936 143.153L121.733 138.74L110.3 138.052L91.2654 140.328Z" fill="white" stroke="#263238" stroke-linecap="round" stroke-linejoin="round"/>
<path d="M122.936 143.148L121.733 138.735L110.3 138.048L91.2425 140.342C91.2425 140.342 89.9986 145.286 90.6892 148.4C91.7868 153.325 95.8982 158.733 103.764 160.459C111.63 162.184 131.401 161.62 131.401 161.62C131.401 161.62 133.276 151.908 136.939 148.12C132.54 146.566 122.936 143.148 122.936 143.148Z" fill="#263238" stroke="#263238" stroke-linecap="round" stroke-linejoin="round"/>
<path d="M131.424 161.587C134.062 160.862 136.623 159.862 139.066 158.6L131.424 161.587Z" fill="white"/>
<path d="M131.424 161.587C134.062 160.862 136.623 159.862 139.066 158.6" stroke="#263238" stroke-linecap="round" stroke-linejoin="round"/>
<path d="M116.465 203.848C115.678 201.952 115.728 198.16 115.829 196.132C114.155 196.99 112.586 197.819 112.701 198.336C112.92 199.369 113.698 205.797 115.358 208.441C117.018 211.086 119.789 212.233 120.896 212.575C122.003 212.916 122.227 212.916 122.227 211.769C122.227 210.622 121.454 209.02 121.449 207.977C120.291 207.824 119.144 207.591 118.015 207.28C118.015 207.28 117.571 206.489 116.465 203.848Z" fill="#4977FF" stroke="#263238" stroke-linecap="round" stroke-linejoin="round"/>
<path d="M114.864 94.8569L111.429 96.35C111.429 96.35 114.201 123.24 114.091 127.032C113.981 130.824 113.757 138.408 113.757 138.408C113.757 138.408 118.522 139.901 121.733 138.754L121.513 125.781C121.513 125.781 123.841 113.376 122.954 109.357C122.067 105.337 119.295 98.2175 119.295 98.2175C119.295 98.2175 117.992 94.9706 114.864 94.8569Z" fill="white" stroke="#263238" stroke-linecap="round" stroke-linejoin="round"/>
<path d="M113.876 106.456L117.205 101.199L121.299 107.361C121.299 107.361 119.529 98.7485 119.305 98.1749C118.774 97.094 117.971 96.1818 116.981 95.5347C115.65 94.6152 114.096 94.5867 113.213 94.5014C112.33 94.4161 111.438 96.3405 111.438 96.3405L113.876 106.456Z" fill="white" stroke="#263238" stroke-linecap="round" stroke-linejoin="round"/>
<path d="M112.321 94.4351C112.321 94.4351 101.185 96.9615 100.229 97.682C99.2734 98.4024 98.8572 100.749 99.095 101.649C99.3328 102.55 101.88 122.031 101.88 122.031L89.0748 141.418C89.0748 141.418 93.2549 145.025 97.1696 145.746C101.084 146.466 109.435 145.385 112.394 144.124L115.353 142.864C115.353 142.864 116.725 119.325 115.266 110.034C113.807 100.744 112.321 94.4351 112.321 94.4351Z" fill="#4977FF" stroke="#263238" stroke-linecap="round" stroke-linejoin="round"/>
<path d="M146.516 124.373L150.865 122.392C150.865 122.392 152.173 119.415 152.347 119.145C152.521 118.874 153.998 118.424 154.693 117.789C155.388 117.154 156.349 116.078 156.609 115.988C156.87 115.898 157.304 116.708 156.609 117.789C156.082 118.555 155.468 119.252 154.78 119.865L159.047 118.244C159.047 118.244 160.698 115.357 161.132 116.618C161.567 117.879 159.303 121.761 158.786 123.022C158.269 124.283 157.739 124.918 156.783 125.098C155.827 125.278 152.868 125.819 152.26 125.909C151.652 125.999 147.906 128.25 147.906 128.25L146.516 124.373Z" fill="white" stroke="#263238" stroke-linecap="round" stroke-linejoin="round"/>
<path d="M152.553 123.472C153.326 122.794 154.217 122.121 154.693 122.121C155.653 122.121 157.739 122.302 157.739 122.302C157.739 122.302 158.96 119.415 159.568 118.984C160.176 118.552 160.698 119.164 160.176 120.064" fill="white"/>
<path d="M152.553 123.472C153.326 122.794 154.217 122.121 154.693 122.121C155.653 122.121 157.739 122.302 157.739 122.302C157.739 122.302 158.96 119.415 159.568 118.984C160.176 118.552 160.698 119.164 160.176 120.064" stroke="#263238" stroke-linecap="round" stroke-linejoin="round"/>
<path d="M118.152 96.6012C118.152 96.6012 120.937 109.134 120.85 113.822C120.763 118.509 119.364 120.87 119.629 122.482C119.895 124.093 120.498 143.044 120.498 143.044L122.936 143.134C122.936 143.134 122.328 135.919 122.414 134.564C122.501 133.208 123.37 127.8 123.37 127.8C123.37 127.8 127.724 136.73 128.332 137.18C128.941 137.631 149.127 128.705 149.127 128.705L147.645 123.562L132.247 126.809C132.247 126.809 129.201 116.348 128.767 114.092C128.332 111.836 127.985 103.906 126.764 101.919C125.543 99.9334 118.152 96.6012 118.152 96.6012Z" fill="#4977FF" stroke="#263238" stroke-linecap="round" stroke-linejoin="round"/>
<path d="M123.37 127.8C123.37 127.8 123.892 125.548 124.765 119.595C125.29 116.041 125.319 112.427 124.852 108.864" stroke="#263238" stroke-linecap="round" stroke-linejoin="round"/>
<path d="M122.419 103.621C122.835 106.868 123.146 110.878 122.588 113.101C121.951 115.624 121.137 118.096 120.151 120.496" stroke="#263238" stroke-linecap="round" stroke-linejoin="round"/>
<path d="M121.651 98.592C121.651 98.592 121.911 99.9524 122.199 101.91" stroke="#263238" stroke-linecap="round" stroke-linejoin="round"/>
<path d="M113.327 116.13C114.457 119.031 115.454 121.861 115.454 121.861" stroke="#263238" stroke-linecap="round" stroke-linejoin="round"/>
<path d="M108.059 95.876C108.059 95.876 110.057 108.593 111.626 112.02C111.946 112.717 112.294 113.542 112.646 114.39" stroke="#263238" stroke-linecap="round" stroke-linejoin="round"/>
<path d="M132.768 121.671L136.162 120.676C136.162 120.676 138.339 117.789 138.86 117.069C139.381 116.348 140.598 116.348 141.471 115.808C142.345 115.267 143.47 113.281 143.905 113.642C144.339 114.002 143.905 115.628 143.447 116.078C142.865 116.566 142.254 117.018 141.618 117.429C141.27 117.699 145.706 116.618 145.706 116.618C145.706 116.618 148.578 114.002 148.752 114.722C148.926 115.443 147.444 117.969 147.444 117.969C147.444 117.969 145.359 120.041 144.312 120.941C143.264 121.842 140.744 122.207 140.049 122.363C139.354 122.52 138.138 122.723 138.138 122.723L132.915 124.705L132.768 121.671Z" fill="white" stroke="#263238" stroke-linecap="round" stroke-linejoin="round"/>
<path d="M146.777 118.5C146.777 118.5 144.947 119.401 143.991 119.851L146.777 118.5Z" fill="white"/>
<path d="M146.777 118.5C146.777 118.5 144.947 119.401 143.991 119.851" stroke="#263238" stroke-linecap="round" stroke-linejoin="round"/>
<path d="M141.645 117.429L140.077 117.789" stroke="#263238" stroke-linecap="round" stroke-linejoin="round"/>
<path d="M102.141 96.9614C102.141 96.9614 97.0096 98.7626 96.2229 100.118C95.4363 101.474 98.2261 112.561 100.316 118.694C102.406 124.828 107.972 135.104 108.667 135.464C109.362 135.825 127.55 129.156 131.712 127.8C135.874 126.444 136.583 125.728 136.583 125.728L134.753 120.856L113.876 124.733L107.473 103.906" fill="#4977FF"/>
<path d="M102.141 96.9614C102.141 96.9614 97.0096 98.7626 96.2229 100.118C95.4363 101.474 98.2261 112.561 100.316 118.694C102.406 124.828 107.972 135.104 108.667 135.464C109.362 135.825 127.55 129.156 131.712 127.8C135.874 126.444 136.583 125.728 136.583 125.728L134.753 120.856L113.876 124.733L107.473 103.906" stroke="#263238" stroke-linecap="round" stroke-linejoin="round"/>
<path d="M127.354 69.4979C127.354 69.4979 129.384 70.9199 128.355 72.4509C127.326 73.982 125.154 74.0862 125.154 74.0862L123.256 70.9863C123.256 70.9863 125.515 68.2086 127.354 69.4979Z" fill="#263238" stroke="#263238" stroke-linecap="round" stroke-linejoin="round"/>
<path d="M125.222 71.3465C125.222 71.3465 128.337 79.0063 128.163 79.6652C127.989 80.324 126.54 81.3526 127.198 82.3527C127.857 83.3529 129.787 85.3532 129.736 85.6328C129.686 85.9125 127.326 87.3392 127.326 87.3392C127.326 87.3392 125.675 93.5012 125.003 94.4018C124.331 95.3024 118.655 94.2075 118.655 94.2075L117.457 101.109L110.716 94.5962L108.196 92.1314C108.196 92.1314 105.937 81.618 110.73 75.2996C115.522 68.9812 125.222 71.3465 125.222 71.3465Z" fill="white" stroke="#263238" stroke-linecap="round" stroke-linejoin="round"/>
<path d="M124.793 82.1395C124.793 82.7841 124.536 83.3055 124.248 83.3008C123.96 83.2961 123.736 82.7652 123.75 82.1158C123.764 81.4664 124.001 80.9498 124.289 80.9545C124.578 80.9592 124.802 81.4901 124.793 82.1395Z" fill="#263238"/>
<path d="M124.806 88.8798C124.267 88.8533 123.74 88.7137 123.254 88.4692C122.769 88.2248 122.337 87.8806 121.985 87.4578C121.985 87.4578 121.815 90.2307 122.648 90.3918C123.48 90.553 124.806 88.8798 124.806 88.8798Z" fill="#263238" stroke="#263238" stroke-linecap="round" stroke-linejoin="round"/>
<path d="M123.055 79.5704C123.055 79.5704 124.788 78.0489 126.338 79.8311" stroke="#263238" stroke-linecap="round" stroke-linejoin="round"/>
<path d="M118.655 94.2075L115.843 93.5107L117.96 97.5824L118.655 94.2075Z" fill="#263238" stroke="#263238" stroke-linecap="round" stroke-linejoin="round"/>
<path d="M125.222 71.3465C125.222 71.3465 124.61 73.342 121.614 75.949C118.619 78.556 115.939 80.215 115.948 80.9355C115.957 81.656 116.405 82.3291 115.801 82.5045C115.309 82.5696 114.81 82.4822 114.365 82.2532C114.365 82.2532 112.911 86.5524 112.692 89.586C112.602 91.5882 112.896 93.589 113.556 95.4731C113.556 95.4731 107.103 95.8333 103.38 92.904C99.6575 89.9747 98.6102 86.6567 99.0218 83.7795C99.4334 80.9023 100.613 71.8158 106.339 67.3649C112.065 62.914 120.27 63.0989 123.055 64.9143C125.84 66.7297 127.857 68.0617 127.344 69.4979C126.832 70.9341 125.222 71.3465 125.222 71.3465Z" fill="#263238" stroke="#263238" stroke-linecap="round" stroke-linejoin="round"/>
<path d="M111.699 161.876C111.528 161.877 111.36 161.838 111.205 161.762C110.879 161.577 110.629 161.276 110.501 160.914C110.374 160.551 110.379 160.154 110.515 159.795C112.582 153.946 114.951 143.513 112.522 140.399C111.955 139.925 108.539 138.977 90.1358 140.949L88.7959 141.091C87.5108 141.205 86.4132 143.129 86.1296 143.793C86.0692 143.962 85.9744 144.116 85.8517 144.244C85.7291 144.373 85.5813 144.472 85.4184 144.537C85.2555 144.601 85.0813 144.628 84.9073 144.617C84.7334 144.605 84.5638 144.555 84.41 144.47C84.0952 144.261 83.8637 143.942 83.7579 143.57C83.652 143.198 83.679 142.799 83.8338 142.446C84.0122 142.029 85.6631 138.351 88.5992 138.086L89.9026 137.948C109.513 135.834 113.272 136.901 114.416 138.361C118.733 143.897 113.501 159.217 112.884 160.947C112.803 161.21 112.646 161.44 112.434 161.607C112.222 161.773 111.965 161.867 111.699 161.876Z" fill="white" stroke="#263238" stroke-linecap="round" stroke-linejoin="round"/>
<path d="M192.546 117.334H162.495L155.544 141.74H185.595L192.546 117.334Z" fill="#D9D9D9" stroke="#263238" stroke-linecap="round" stroke-linejoin="round"/>
<path d="M133.56 140.404L133.18 141.74H185.595L185.979 140.404H133.56Z" fill="#D9D9D9" stroke="#263238" stroke-linecap="round" stroke-linejoin="round"/>
<path d="M155.978 140.404L155.599 141.74H185.595L185.979 140.404H155.978Z" fill="#263238" stroke="#263238" stroke-linecap="round" stroke-linejoin="round"/>
<path d="M185.165 145.404H180.08V215.879H185.165V145.404Z" fill="white" stroke="#263238" stroke-linecap="round" stroke-linejoin="round"/>
<path d="M185.165 145.404H180.08V157.046H185.165V145.404Z" fill="#263238" stroke="#263238" stroke-linecap="round" stroke-linejoin="round"/>
<path d="M246.946 141.754H117.841V145.67H246.946V141.754Z" fill="white" stroke="#263238" stroke-linecap="round" stroke-linejoin="round"/>
<path d="M209.157 216.452H155.649C160.942 213.872 166.72 212.535 172.57 212.537H192.295C198.145 212.534 203.923 213.871 209.216 216.452H209.157Z" fill="white" stroke="#263238" stroke-linecap="round" stroke-linejoin="round"/>
</svg>
